<svg width="731" height="777" viewBox="0 0 731 777" fill="none" xmlns="http://www.w3.org/2000/svg">
<g opacity="0.05" clip-path="url(#clip0_1_11586)">
<path d="M729.743 477.356H786.741V749.473H729.743V477.356Z" fill="#333333"/>
<path d="M471.872 646.696H528.87V779.996H471.872V646.696Z" fill="#333333"/>
<path d="M502.962 639.971H528.87V647.559H502.962V639.971Z" fill="#333333"/>
<path d="M513.843 635.66H528.87V639.971H513.843V635.66Z" fill="#333333"/>
<path opacity="0.06" d="M495.707 656.008H505.034V662.906H495.707V656.008Z" fill="white"/>
<path opacity="0.12" d="M495.707 673.08H505.034V679.978H495.707V673.08Z" fill="white"/>
<path opacity="0.19" d="M495.707 707.224H505.034V714.122H495.707V707.224Z" fill="white"/>
<path opacity="0.14" d="M495.707 741.368H505.034V748.266H495.707V741.368Z" fill="white"/>
<path opacity="0.1" d="M495.707 758.44H505.034V765.338H495.707V758.44Z" fill="white"/>
<path d="M614.884 661.181H692.954V732.573H614.884V661.181Z" fill="#333333"/>
<path d="M627.147 654.801H680.518V685.496H627.147V654.801Z" fill="#333333"/>
<path d="M609.185 706.189H687.254V777.581H609.185V706.189Z" fill="#333333"/>
<path d="M621.62 699.808H674.991V730.503H621.62V699.808Z" fill="#333333"/>
<path d="M505.207 696.704H583.276V778.961H505.207V696.704Z" fill="#333333"/>
<path d="M517.47 689.462H570.841V724.985H517.47V689.462Z" fill="#333333"/>
<path d="M243.881 721.71H321.951V801.206H243.881V721.71Z" fill="#333333"/>
<path d="M256.144 714.639H309.515V748.956H256.144V714.639Z" fill="#333333"/>
<path d="M413.147 557.542H500.371V778.789H413.147V557.542Z" fill="#333333"/>
<path opacity="0.46" d="M474.981 567.544H496.053V571.511H474.981V567.544Z" fill="#E6E6E6"/>
<path opacity="0.34" d="M446.136 567.544H467.208V571.511H446.136V567.544Z" fill="#E6E6E6"/>
<path opacity="0.52" d="M417.465 567.544H438.537V571.511H417.465V567.544Z" fill="#E6E6E6"/>
<path opacity="0.54" d="M474.981 576.684H496.053V580.65H474.981V576.684Z" fill="#E6E6E6"/>
<path opacity="0.3" d="M446.136 576.684H467.208V580.65H446.136V576.684Z" fill="#E6E6E6"/>
<path opacity="0.06" d="M417.465 576.684H438.537V580.65H417.465V576.684Z" fill="#E6E6E6"/>
<path opacity="0.15" d="M474.981 585.823H496.053V589.79H474.981V585.823Z" fill="#E6E6E6"/>
<path opacity="0.42" d="M446.136 585.823H467.208V589.79H446.136V585.823Z" fill="#E6E6E6"/>
<path opacity="0.48" d="M417.465 585.823H438.537V589.79H417.465V585.823Z" fill="#E6E6E6"/>
<path opacity="0.18" d="M474.981 594.963H496.053V598.929H474.981V594.963Z" fill="#E6E6E6"/>
<path opacity="0.28" d="M417.465 594.963H438.537V598.929H417.465V594.963Z" fill="#E6E6E6"/>
<path opacity="0.29" d="M474.981 604.102H496.053V608.069H474.981V604.102Z" fill="#E6E6E6"/>
<path opacity="0.28" d="M446.136 604.102H467.208V608.069H446.136V604.102Z" fill="#E6E6E6"/>
<path opacity="0.56" d="M417.465 604.102H438.537V608.069H417.465V604.102Z" fill="#E6E6E6"/>
<path opacity="0.41" d="M474.981 613.242H496.053V617.208H474.981V613.242Z" fill="#E6E6E6"/>
<path opacity="0.16" d="M446.136 613.242H467.208V617.208H446.136V613.242Z" fill="#E6E6E6"/>
<path opacity="0.4" d="M417.465 613.242H438.537V617.208H417.465V613.242Z" fill="#E6E6E6"/>
<path opacity="0.1" d="M474.981 622.382H496.053V626.348H474.981V622.382Z" fill="#E6E6E6"/>
<path opacity="0.17" d="M446.136 622.382H467.208V626.348H446.136V622.382Z" fill="#E6E6E6"/>
<path opacity="0.08" d="M417.465 622.382H438.537V626.348H417.465V622.382Z" fill="#E6E6E6"/>
<path opacity="0.49" d="M474.981 631.521H496.053V635.487H474.981V631.521Z" fill="#E6E6E6"/>
<path opacity="0.58" d="M446.136 631.521H467.208V635.487H446.136V631.521Z" fill="#E6E6E6"/>
<path opacity="0.58" d="M417.465 631.521H438.537V635.487H417.465V631.521Z" fill="#E6E6E6"/>
<path opacity="0.26" d="M474.981 640.661H496.053V644.627H474.981V640.661Z" fill="#E6E6E6"/>
<path opacity="0.37" d="M446.136 640.661H467.208V644.627H446.136V640.661Z" fill="#E6E6E6"/>
<path opacity="0.34" d="M417.465 640.661H438.537V644.627H417.465V640.661Z" fill="#E6E6E6"/>
<path opacity="0.55" d="M474.981 649.8H496.053V653.766H474.981V649.8Z" fill="#E6E6E6"/>
<path opacity="0.12" d="M446.136 649.8H467.208V653.766H446.136V649.8Z" fill="#E6E6E6"/>
<path opacity="0.6" d="M417.465 649.8H438.537V653.766H417.465V649.8Z" fill="#E6E6E6"/>
<path opacity="0.02" d="M474.981 658.94H496.053V662.906H474.981V658.94Z" fill="#E6E6E6"/>
<path opacity="0.28" d="M446.136 658.94H467.208V662.906H446.136V658.94Z" fill="#E6E6E6"/>
<path opacity="0.21" d="M417.465 658.94H438.537V662.906H417.465V658.94Z" fill="#E6E6E6"/>
<path opacity="0.57" d="M474.981 668.079H496.053V672.046H474.981V668.079Z" fill="#E6E6E6"/>
<path opacity="0.38" d="M446.136 668.079H467.208V672.046H446.136V668.079Z" fill="#E6E6E6"/>
<path opacity="0.25" d="M417.465 668.079H438.537V672.046H417.465V668.079Z" fill="#E6E6E6"/>
<path opacity="0.15" d="M474.981 677.219H496.053V681.185H474.981V677.219Z" fill="#E6E6E6"/>
<path opacity="0.47" d="M446.136 677.219H467.208V681.185H446.136V677.219Z" fill="#E6E6E6"/>
<path opacity="0.3" d="M417.465 677.219H438.537V681.185H417.465V677.219Z" fill="#E6E6E6"/>
<path opacity="0.4" d="M474.981 686.358H496.053V690.325H474.981V686.358Z" fill="#E6E6E6"/>
<path opacity="0.39" d="M446.136 686.358H467.208V690.325H446.136V686.358Z" fill="#E6E6E6"/>
<path opacity="0.24" d="M417.465 686.358H438.537V690.325H417.465V686.358Z" fill="#E6E6E6"/>
<path opacity="0.46" d="M474.981 695.498H496.053V699.464H474.981V695.498Z" fill="#E6E6E6"/>
<path opacity="0.22" d="M446.136 695.498H467.208V699.464H446.136V695.498Z" fill="#E6E6E6"/>
<path opacity="0.11" d="M417.465 695.498H438.537V699.464H417.465V695.498Z" fill="#E6E6E6"/>
<path opacity="0.11" d="M446.136 704.638H467.208V708.604H446.136V704.638Z" fill="#E6E6E6"/>
<path opacity="0.02" d="M417.465 704.638H438.537V708.604H417.465V704.638Z" fill="#E6E6E6"/>
<path opacity="0.27" d="M474.981 713.777H496.053V717.744H474.981V713.777Z" fill="#E6E6E6"/>
<path opacity="0.21" d="M446.136 713.777H467.208V717.744H446.136V713.777Z" fill="#E6E6E6"/>
<path opacity="0.49" d="M417.465 713.777H438.537V717.744H417.465V713.777Z" fill="#E6E6E6"/>
<path opacity="0.6" d="M474.981 722.917H496.053V726.883H474.981V722.917Z" fill="#E6E6E6"/>
<path opacity="0.31" d="M446.136 722.917H467.208V726.883H446.136V722.917Z" fill="#E6E6E6"/>
<path opacity="0.22" d="M417.465 722.917H438.537V726.883H417.465V722.917Z" fill="#E6E6E6"/>
<path opacity="0.54" d="M474.981 732.056H496.053V736.023H474.981V732.056Z" fill="#E6E6E6"/>
<path opacity="0.6" d="M446.136 732.056H467.208V736.023H446.136V732.056Z" fill="#E6E6E6"/>
<path opacity="0.08" d="M417.465 732.056H438.537V736.023H417.465V732.056Z" fill="#E6E6E6"/>
<path opacity="0.55" d="M446.136 741.196H467.208V745.162H446.136V741.196Z" fill="#E6E6E6"/>
<path d="M417.465 741.196H438.537V745.162H417.465V741.196Z" fill="#E6E6E6"/>
<path opacity="0.6" d="M473.599 567.544H474.981V745.162H473.599V567.544Z" fill="#E6E6E6"/>
<path opacity="0.6" d="M438.537 567.544H439.919V745.162H438.537V567.544Z" fill="#E6E6E6"/>
<path d="M369.621 557.542H413.147V778.789H369.621V557.542Z" fill="#4D4D4D"/>
<path opacity="0.69" d="M376.012 567.544H408.829V571.511H376.012V567.544Z" fill="#E6E6E6"/>
<path opacity="0.79" d="M376.012 576.684H408.829V580.65H376.012V576.684Z" fill="#E6E6E6"/>
<path opacity="0.19" d="M376.012 585.823H408.829V589.79H376.012V585.823Z" fill="#E6E6E6"/>
<path opacity="0.88" d="M376.012 594.963H408.829V598.929H376.012V594.963Z" fill="#E6E6E6"/>
<path opacity="0.5" d="M376.012 604.102H408.829V608.069H376.012V604.102Z" fill="#E6E6E6"/>
<path opacity="0.25" d="M376.012 613.242H408.829V617.208H376.012V613.242Z" fill="#E6E6E6"/>
<path opacity="0.91" d="M376.012 622.382H408.829V626.348H376.012V622.382Z" fill="#E6E6E6"/>
<path opacity="0.02" d="M376.012 631.521H408.829V635.487H376.012V631.521Z" fill="#E6E6E6"/>
<path opacity="0.53" d="M376.012 640.661H408.829V644.627H376.012V640.661Z" fill="#E6E6E6"/>
<path opacity="0.65" d="M376.012 649.8H408.829V653.766H376.012V649.8Z" fill="#E6E6E6"/>
<path d="M376.012 658.94H408.829V662.906H376.012V658.94Z" fill="#E6E6E6"/>
<path opacity="0.8" d="M376.012 668.079H408.829V672.046H376.012V668.079Z" fill="#E6E6E6"/>
<path opacity="0.82" d="M376.012 677.219H408.829V681.185H376.012V677.219Z" fill="#E6E6E6"/>
<path opacity="0.75" d="M376.012 686.358H408.829V690.325H376.012V686.358Z" fill="#E6E6E6"/>
<path opacity="0.31" d="M376.012 695.498H408.829V699.464H376.012V695.498Z" fill="#E6E6E6"/>
<path opacity="0.22" d="M376.012 704.638H408.829V708.604H376.012V704.638Z" fill="#E6E6E6"/>
<path opacity="0.43" d="M376.012 713.777H408.829V717.744H376.012V713.777Z" fill="#E6E6E6"/>
<path opacity="0.68" d="M376.012 722.917H408.829V726.883H376.012V722.917Z" fill="#E6E6E6"/>
<path opacity="0.38" d="M376.012 732.056H408.829V736.023H376.012V732.056Z" fill="#E6E6E6"/>
<path opacity="0.84" d="M376.012 741.196H408.829V745.162H376.012V741.196Z" fill="#E6E6E6"/>
<path d="M484.999 545.816V557.542H428.519V545.816H484.999ZM472.39 553.749H478.262V549.782H472.39V553.749ZM463.236 553.749H468.936V549.782H463.236V553.749ZM453.909 553.749H459.609V549.782H453.909V553.749ZM444.582 553.749H450.454V549.782H444.582V553.749ZM435.255 553.749H441.128V549.782H435.255V553.749Z" fill="#333333"/>
<path d="M418.156 549.782H419.71V553.749H418.156V549.782Z" fill="#333333"/>
<path d="M428.519 545.816V557.542H401.92V545.816H428.519ZM418.156 553.749H423.856V549.782H418.156V553.749ZM405.893 553.749H411.592V549.782H405.893V553.749Z" fill="#4D4D4D"/>
<path d="M406.065 549.782H407.62V553.749H406.065V549.782Z" fill="#333333"/>
<path d="M401.575 793.79H519.024L401.575 707.223V793.79Z" fill="#333333"/>
<path d="M576.713 510.637H586.213V546.678H576.713V510.637Z" fill="#4D4D4D"/>
<path d="M586.04 510.637H595.712V546.678H586.04V510.637Z" fill="#333333"/>
<path d="M566.868 510.637H576.54V546.678H566.868V510.637Z" fill="#666666"/>
<path d="M538.887 571.338H565.832V776.892H538.887V571.338Z" fill="#666666"/>
<path d="M597.439 571.338H620.929V776.892H597.439V571.338Z" fill="#333333"/>
<path d="M565.832 571.338H597.612V776.892H565.832V571.338Z" fill="#4D4D4D"/>
<path opacity="0.6" d="M614.193 577.373H617.648V774.132H614.193V577.373Z" fill="#E6E6E6"/>
<path opacity="0.6" d="M607.457 577.373H610.912V774.132H607.457V577.373Z" fill="#E6E6E6"/>
<path opacity="0.6" d="M600.721 577.373H604.175V774.132H600.721V577.373Z" fill="#E6E6E6"/>
<path d="M560.477 577.373H563.932V774.132H560.477V577.373Z" fill="#E6E6E6"/>
<path d="M553.741 577.373H557.196V774.132H553.741V577.373Z" fill="#E6E6E6"/>
<path d="M540.615 577.373H544.069V774.132H540.615V577.373Z" fill="#E6E6E6"/>
<path d="M547.005 577.373H550.46V774.132H547.005V577.373Z" fill="#E6E6E6"/>
<path opacity="0.8" d="M593.64 774.132H569.804V577.373H593.64V774.132ZM589.84 580.822H573.604V770.684H589.84V580.822Z" fill="#E6E6E6"/>
<path opacity="0.8" d="M586.731 767.407H576.54V583.926H586.731V767.407ZM583.276 588.237H582.067H581.376H579.995V763.096H581.376H582.067H583.276V588.237Z" fill="#E6E6E6"/>
<path opacity="0.8" d="M581.376 588.237H582.067V763.096H581.376V588.237Z" fill="#E6E6E6"/>
<path d="M569.459 535.297H593.294V571.338H569.459V535.297Z" fill="#4D4D4D"/>
<path d="M569.459 535.297H593.294V571.338H569.459V535.297Z" fill="#4D4D4D"/>
<path d="M545.623 535.297H569.459V571.338H545.623V535.297Z" fill="#666666"/>
<path d="M593.294 535.297H617.13V571.338H593.294V535.297Z" fill="#333333"/>
<path d="M567.041 510.637H595.712L586.213 517.19H576.54L567.041 510.637Z" fill="#808080"/>
<path d="M54.5796 497.359H68.3971V537.884H54.5796V497.359Z" fill="#4D4D4D"/>
<path d="M68.5701 497.359H82.3877V537.884H68.5701V497.359Z" fill="#333333"/>
<path d="M40.7618 497.359H54.5796V537.884H40.7618V497.359Z" fill="#666666"/>
<path d="M0 565.82H39.0347V797.413H0V565.82Z" fill="#666666"/>
<path d="M84.9785 565.82H118.832V797.413H84.9785V565.82Z" fill="#333333"/>
<path d="M39.0348 565.82H84.9784V797.413H39.0348V565.82Z" fill="#4D4D4D"/>
<path opacity="0.4" d="M109.159 572.717H114.168V794.308H109.159V572.717Z" fill="#E6E6E6"/>
<path opacity="0.4" d="M99.3141 572.717H104.323V794.308H99.3141V572.717Z" fill="#E6E6E6"/>
<path opacity="0.4" d="M89.469 572.717H94.478V794.308H89.469V572.717Z" fill="#E6E6E6"/>
<path d="M31.2623 572.717H36.2712V794.308H31.2623V572.717Z" fill="#E6E6E6"/>
<path d="M21.4172 572.717H26.4263V794.308H21.4172V572.717Z" fill="#E6E6E6"/>
<path d="M2.59082 572.717H7.59973V794.308H2.59082V572.717Z" fill="#E6E6E6"/>
<path d="M11.7449 572.717H16.7539V794.308H11.7449V572.717Z" fill="#E6E6E6"/>
<path d="M79.106 794.308H44.5618V572.717H79.106V794.308ZM73.7516 576.511H50.2615V790.514H73.7516V576.511Z" fill="#E6E6E6"/>
<path d="M69.4336 786.893H54.5796V580.133H69.4336V786.893ZM64.252 584.961H62.352H61.4884H59.5885V782.065H61.4884H62.352H64.252V584.961Z" fill="#E6E6E6"/>
<path d="M61.4884 584.961H62.3519V782.065H61.4884V584.961Z" fill="#E6E6E6"/>
<path d="M44.2163 525.295H78.7605V565.82H44.2163V525.295Z" fill="#4D4D4D"/>
<path d="M44.2163 525.295H78.7605V565.82H44.2163V525.295Z" fill="#4D4D4D"/>
<path d="M9.67236 525.295H44.2163V565.82H9.67236V525.295Z" fill="#666666"/>
<path d="M78.5876 525.295H113.132V565.82H78.5876V525.295Z" fill="#333333"/>
<path d="M40.5894 497.359H82.3877L68.3973 504.774H54.5797L40.5894 497.359Z" fill="#808080"/>
<path d="M154.239 597.894H248.717V629.278H154.239V597.894Z" fill="#E6E6E6"/>
<path d="M211.582 597.894H248.717V629.278H211.582V597.894Z" fill="#B3B3B3"/>
<path d="M211.582 629.451H284.989V781.892H211.582V629.451Z" fill="#333333"/>
<path d="M96.8961 629.451H211.582V781.892H96.8961V629.451Z" fill="#4D4D4D"/>
<path d="M220.564 613.931H277.043V629.451H220.564V613.931Z" fill="#333333"/>
<path d="M113.995 613.931H194.656V629.451H113.995V613.931Z" fill="#4D4D4D"/>
<path d="M179.284 585.995H211.582V597.893H179.284V585.995Z" fill="#E6E6E6"/>
<path d="M195.519 573.924H211.582V585.823H195.519V573.924Z" fill="#4D4D4D"/>
<path d="M211.755 573.924H227.818V585.823H211.755V573.924Z" fill="#333333"/>
<path d="M211.582 585.995H236.281V597.893H211.582V585.995Z" fill="#B3B3B3"/>
<path d="M212.619 573.924L211.582 546.333L210.719 573.924H212.619Z" fill="#333333"/>
<path opacity="0.12" d="M261.844 635.659H267.889V641.694H261.844V635.659Z" fill="white"/>
<path opacity="0.25" d="M253.553 635.659H259.599V641.694H253.553V635.659Z" fill="white"/>
<path opacity="0.36" d="M245.263 635.659H251.308V641.694H245.263V635.659Z" fill="white"/>
<path opacity="0.12" d="M236.972 635.659H243.018V641.694H236.972V635.659Z" fill="white"/>
<path opacity="0.14" d="M228.682 635.659H234.727V641.694H228.682V635.659Z" fill="white"/>
<path opacity="0.28" d="M261.844 643.591H267.889V649.627H261.844V643.591Z" fill="white"/>
<path opacity="0.4" d="M253.553 643.591H259.599V649.627H253.553V643.591Z" fill="white"/>
<path opacity="0.16" d="M245.263 643.591H251.308V649.627H245.263V643.591Z" fill="white"/>
<path opacity="0.17" d="M228.682 643.591H234.727V649.627H228.682V643.591Z" fill="white"/>
<path opacity="0.27" d="M261.844 651.524H267.889V657.559H261.844V651.524Z" fill="white"/>
<path opacity="0.45" d="M253.553 651.524H259.599V657.559H253.553V651.524Z" fill="white"/>
<path opacity="0.45" d="M245.263 651.524H251.308V657.559H245.263V651.524Z" fill="white"/>
<path opacity="0.48" d="M236.972 651.524H243.018V657.559H236.972V651.524Z" fill="white"/>
<path opacity="0.25" d="M228.682 651.524H234.727V657.559H228.682V651.524Z" fill="white"/>
<path opacity="0.28" d="M261.844 659.456H267.889V665.492H261.844V659.456Z" fill="white"/>
<path opacity="0.13" d="M253.553 659.456H259.599V665.492H253.553V659.456Z" fill="white"/>
<path opacity="0.07" d="M245.263 659.456H251.308V665.492H245.263V659.456Z" fill="white"/>
<path opacity="0.39" d="M236.972 659.456H243.018V665.492H236.972V659.456Z" fill="white"/>
<path opacity="0.47" d="M228.682 659.456H234.727V665.492H228.682V659.456Z" fill="white"/>
<path opacity="0.28" d="M261.844 667.388H267.889V673.424H261.844V667.388Z" fill="white"/>
<path opacity="0.2" d="M253.553 667.388H259.599V673.424H253.553V667.388Z" fill="white"/>
<path opacity="0.04" d="M245.263 667.388H251.308V673.424H245.263V667.388Z" fill="white"/>
<path opacity="0.43" d="M236.972 667.388H243.018V673.424H236.972V667.388Z" fill="white"/>
<path opacity="0.48" d="M228.682 667.388H234.727V673.424H228.682V667.388Z" fill="white"/>
<path opacity="0.28" d="M261.844 675.321H267.889V681.357H261.844V675.321Z" fill="white"/>
<path opacity="0.19" d="M253.553 675.321H259.599V681.357H253.553V675.321Z" fill="white"/>
<path opacity="0.01" d="M245.263 675.321H251.308V681.357H245.263V675.321Z" fill="white"/>
<path opacity="0.27" d="M236.972 675.321H243.018V681.357H236.972V675.321Z" fill="white"/>
<path opacity="0.24" d="M228.682 675.321H234.727V681.357H228.682V675.321Z" fill="white"/>
<path opacity="0.07" d="M261.844 683.426H267.889V689.461H261.844V683.426Z" fill="white"/>
<path opacity="0.25" d="M253.553 683.426H259.599V689.461H253.553V683.426Z" fill="white"/>
<path opacity="0.26" d="M245.263 683.426H251.308V689.461H245.263V683.426Z" fill="white"/>
<path opacity="0.39" d="M236.972 683.426H243.018V689.461H236.972V683.426Z" fill="white"/>
<path opacity="0.22" d="M228.682 683.426H234.727V689.461H228.682V683.426Z" fill="white"/>
<path opacity="0.15" d="M261.844 691.358H267.889V697.394H261.844V691.358Z" fill="white"/>
<path opacity="0.23" d="M253.553 691.358H259.599V697.394H253.553V691.358Z" fill="white"/>
<path opacity="0.05" d="M245.263 691.358H251.308V697.394H245.263V691.358Z" fill="white"/>
<path opacity="0.2" d="M236.972 691.358H243.018V697.394H236.972V691.358Z" fill="white"/>
<path opacity="0.31" d="M228.682 691.358H234.727V697.394H228.682V691.358Z" fill="white"/>
<path opacity="0.15" d="M261.844 699.291H267.889V705.326H261.844V699.291Z" fill="white"/>
<path opacity="0.33" d="M253.553 699.291H259.599V705.326H253.553V699.291Z" fill="white"/>
<path opacity="0.46" d="M245.263 699.291H251.308V705.326H245.263V699.291Z" fill="white"/>
<path opacity="0.25" d="M236.972 699.291H243.018V705.326H236.972V699.291Z" fill="white"/>
<path opacity="0.43" d="M228.682 699.291H234.727V705.326H228.682V699.291Z" fill="white"/>
<path opacity="0.4" d="M261.844 707.223H267.889V713.259H261.844V707.223Z" fill="white"/>
<path opacity="0.39" d="M253.553 707.223H259.599V713.259H253.553V707.223Z" fill="white"/>
<path opacity="0.01" d="M245.263 707.223H251.308V713.259H245.263V707.223Z" fill="white"/>
<path opacity="0.12" d="M236.972 707.223H243.018V713.259H236.972V707.223Z" fill="white"/>
<path opacity="0.07" d="M228.682 707.223H234.727V713.259H228.682V707.223Z" fill="white"/>
<path opacity="0.07" d="M261.844 715.156H267.889V721.191H261.844V715.156Z" fill="white"/>
<path opacity="0.02" d="M253.553 715.156H259.599V721.191H253.553V715.156Z" fill="white"/>
<path opacity="0.12" d="M245.263 715.156H251.308V721.191H245.263V715.156Z" fill="white"/>
<path opacity="0.23" d="M236.972 715.156H243.018V721.191H236.972V715.156Z" fill="white"/>
<path opacity="0.26" d="M228.682 715.156H234.727V721.191H228.682V715.156Z" fill="white"/>
<path opacity="0.27" d="M261.844 723.088H267.889V729.124H261.844V723.088Z" fill="white"/>
<path opacity="0.38" d="M253.553 723.088H259.599V729.124H253.553V723.088Z" fill="white"/>
<path opacity="0.05" d="M245.263 723.088H251.308V729.124H245.263V723.088Z" fill="white"/>
<path opacity="0.45" d="M236.972 723.088H243.018V729.124H236.972V723.088Z" fill="white"/>
<path opacity="0.15" d="M228.682 723.088H234.727V729.124H228.682V723.088Z" fill="white"/>
<path opacity="0.06" d="M261.844 731.021H267.889V737.056H261.844V731.021Z" fill="white"/>
<path opacity="0.47" d="M253.553 731.021H259.599V737.056H253.553V731.021Z" fill="white"/>
<path opacity="0.15" d="M245.263 731.021H251.308V737.056H245.263V731.021Z" fill="white"/>
<path opacity="0.44" d="M236.972 731.021H243.018V737.056H236.972V731.021Z" fill="white"/>
<path opacity="0.14" d="M228.682 731.021H234.727V737.056H228.682V731.021Z" fill="white"/>
<path opacity="0.15" d="M261.844 738.953H267.889V744.989H261.844V738.953Z" fill="white"/>
<path opacity="0.43" d="M253.553 738.953H259.599V744.989H253.553V738.953Z" fill="white"/>
<path opacity="0.07" d="M245.263 738.953H251.308V744.989H245.263V738.953Z" fill="white"/>
<path opacity="0.47" d="M236.972 738.953H243.018V744.989H236.972V738.953Z" fill="white"/>
<path opacity="0.11" d="M228.682 738.953H234.727V744.989H228.682V738.953Z" fill="white"/>
<path opacity="0.07" d="M261.844 746.885H267.889V752.921H261.844V746.885Z" fill="white"/>
<path opacity="0.34" d="M253.553 746.885H259.599V752.921H253.553V746.885Z" fill="white"/>
<path opacity="0.5" d="M245.263 746.885H251.308V752.921H245.263V746.885Z" fill="white"/>
<path opacity="0.36" d="M236.972 746.885H243.018V752.921H236.972V746.885Z" fill="white"/>
<path opacity="0.34" d="M228.682 746.885H234.727V752.921H228.682V746.885Z" fill="white"/>
<path opacity="0.47" d="M261.844 754.818H267.889V760.854H261.844V754.818Z" fill="white"/>
<path opacity="0.41" d="M253.553 754.818H259.599V760.854H253.553V754.818Z" fill="white"/>
<path opacity="0.3" d="M245.263 754.818H251.308V760.854H245.263V754.818Z" fill="white"/>
<path opacity="0.33" d="M236.972 754.818H243.018V760.854H236.972V754.818Z" fill="white"/>
<path opacity="0.12" d="M228.682 754.818H234.727V760.854H228.682V754.818Z" fill="white"/>
<path opacity="0.24" d="M261.844 762.75H267.889V768.786H261.844V762.75Z" fill="white"/>
<path opacity="0.29" d="M253.553 762.75H259.599V768.786H253.553V762.75Z" fill="white"/>
<path opacity="0.27" d="M236.972 762.75H243.018V768.786H236.972V762.75Z" fill="white"/>
<path opacity="0.04" d="M228.682 762.75H234.727V768.786H228.682V762.75Z" fill="white"/>
<path opacity="0.11" d="M261.844 770.683H267.889V776.718H261.844V770.683Z" fill="white"/>
<path opacity="0.05" d="M253.553 770.683H259.599V776.718H253.553V770.683Z" fill="white"/>
<path opacity="0.04" d="M245.263 770.683H251.308V776.718H245.263V770.683Z" fill="white"/>
<path opacity="0.02" d="M236.972 770.683H243.018V776.718H236.972V770.683Z" fill="white"/>
<path opacity="0.3" d="M191.547 635.659H197.592V641.694H191.547V635.659Z" fill="white"/>
<path opacity="0.72" d="M183.602 635.659H189.647V641.694H183.602V635.659Z" fill="white"/>
<path opacity="0.7" d="M175.484 635.659H181.529V641.694H175.484V635.659Z" fill="white"/>
<path opacity="0.52" d="M167.366 635.659H173.411V641.694H167.366V635.659Z" fill="white"/>
<path opacity="0.2" d="M159.248 635.659H165.294V641.694H159.248V635.659Z" fill="white"/>
<path opacity="0.32" d="M151.303 635.659H157.348V641.694H151.303V635.659Z" fill="white"/>
<path opacity="0.13" d="M143.185 635.659H149.23V641.694H143.185V635.659Z" fill="white"/>
<path opacity="0.38" d="M135.067 635.659H141.113V641.694H135.067V635.659Z" fill="white"/>
<path opacity="0.61" d="M127.122 635.659H133.167V641.694H127.122V635.659Z" fill="white"/>
<path d="M119.004 635.659H125.05V641.694H119.004V635.659Z" fill="white"/>
<path opacity="0.91" d="M110.887 635.659H116.932V641.694H110.887V635.659Z" fill="white"/>
<path opacity="0.66" d="M191.547 643.591H197.592V649.627H191.547V643.591Z" fill="white"/>
<path opacity="0.31" d="M183.602 643.591H189.647V649.627H183.602V643.591Z" fill="white"/>
<path opacity="0.95" d="M175.484 643.591H181.529V649.627H175.484V643.591Z" fill="white"/>
<path opacity="0.7" d="M167.366 643.591H173.411V649.627H167.366V643.591Z" fill="white"/>
<path opacity="0.12" d="M159.248 643.591H165.294V649.627H159.248V643.591Z" fill="white"/>
<path opacity="0.24" d="M151.303 643.591H157.348V649.627H151.303V643.591Z" fill="white"/>
<path opacity="0.66" d="M143.185 643.591H149.23V649.627H143.185V643.591Z" fill="white"/>
<path opacity="0.71" d="M135.067 643.591H141.113V649.627H135.067V643.591Z" fill="white"/>
<path opacity="0.42" d="M127.122 643.591H133.167V649.627H127.122V643.591Z" fill="white"/>
<path opacity="0.09" d="M119.004 643.591H125.05V649.627H119.004V643.591Z" fill="white"/>
<path opacity="0.32" d="M110.887 643.591H116.932V649.627H110.887V643.591Z" fill="white"/>
<path opacity="0.65" d="M191.547 651.524H197.592V657.559H191.547V651.524Z" fill="white"/>
<path d="M183.602 651.524H189.647V657.559H183.602V651.524Z" fill="white"/>
<path d="M175.484 651.524H181.529V657.559H175.484V651.524Z" fill="white"/>
<path opacity="0.71" d="M167.366 651.524H173.411V657.559H167.366V651.524Z" fill="white"/>
<path opacity="0.2" d="M159.248 651.524H165.294V657.559H159.248V651.524Z" fill="white"/>
<path opacity="0.19" d="M151.303 651.524H157.348V657.559H151.303V651.524Z" fill="white"/>
<path opacity="0.62" d="M143.185 651.524H149.23V657.559H143.185V651.524Z" fill="white"/>
<path opacity="0.93" d="M135.067 651.524H141.113V657.559H135.067V651.524Z" fill="white"/>
<path opacity="0.56" d="M127.122 651.524H133.167V657.559H127.122V651.524Z" fill="white"/>
<path opacity="0.57" d="M119.004 651.524H125.05V657.559H119.004V651.524Z" fill="white"/>
<path opacity="0.52" d="M110.887 651.524H116.932V657.559H110.887V651.524Z" fill="white"/>
<path opacity="0.74" d="M191.547 659.456H197.592V665.492H191.547V659.456Z" fill="white"/>
<path opacity="0.56" d="M183.602 659.456H189.647V665.492H183.602V659.456Z" fill="white"/>
<path opacity="0.78" d="M175.484 659.456H181.529V665.492H175.484V659.456Z" fill="white"/>
<path opacity="0.41" d="M167.366 659.456H173.411V665.492H167.366V659.456Z" fill="white"/>
<path opacity="0.14" d="M159.248 659.456H165.294V665.492H159.248V659.456Z" fill="white"/>
<path opacity="0.28" d="M151.303 659.456H157.348V665.492H151.303V659.456Z" fill="white"/>
<path opacity="0.36" d="M143.185 659.456H149.23V665.492H143.185V659.456Z" fill="white"/>
<path opacity="0.14" d="M135.067 659.456H141.113V665.492H135.067V659.456Z" fill="white"/>
<path opacity="0.5" d="M127.122 659.456H133.167V665.492H127.122V659.456Z" fill="white"/>
<path opacity="0.98" d="M119.004 659.456H125.05V665.492H119.004V659.456Z" fill="white"/>
<path opacity="0.59" d="M110.887 659.456H116.932V665.492H110.887V659.456Z" fill="white"/>
<path opacity="0.07" d="M191.547 667.388H197.592V673.424H191.547V667.388Z" fill="white"/>
<path opacity="0.1" d="M183.602 667.388H189.647V673.424H183.602V667.388Z" fill="white"/>
<path opacity="0.88" d="M175.484 667.388H181.529V673.424H175.484V667.388Z" fill="white"/>
<path opacity="0.68" d="M167.366 667.388H173.411V673.424H167.366V667.388Z" fill="white"/>
<path opacity="0.81" d="M159.248 667.388H165.294V673.424H159.248V667.388Z" fill="white"/>
<path opacity="0.62" d="M151.303 667.388H157.348V673.424H151.303V667.388Z" fill="white"/>
<path opacity="0.97" d="M143.185 667.388H149.23V673.424H143.185V667.388Z" fill="white"/>
<path opacity="0.81" d="M135.067 667.388H141.113V673.424H135.067V667.388Z" fill="white"/>
<path opacity="0.79" d="M127.122 667.388H133.167V673.424H127.122V667.388Z" fill="white"/>
<path opacity="0.03" d="M119.004 667.388H125.05V673.424H119.004V667.388Z" fill="white"/>
<path opacity="0.95" d="M110.887 667.388H116.932V673.424H110.887V667.388Z" fill="white"/>
<path opacity="0.62" d="M191.547 675.321H197.592V681.357H191.547V675.321Z" fill="white"/>
<path opacity="0.22" d="M183.602 675.321H189.647V681.357H183.602V675.321Z" fill="white"/>
<path opacity="0.42" d="M175.484 675.321H181.529V681.357H175.484V675.321Z" fill="white"/>
<path opacity="0.56" d="M167.366 675.321H173.411V681.357H167.366V675.321Z" fill="white"/>
<path opacity="0.03" d="M159.248 675.321H165.294V681.357H159.248V675.321Z" fill="white"/>
<path opacity="0.64" d="M151.303 675.321H157.348V681.357H151.303V675.321Z" fill="white"/>
<path opacity="0.82" d="M143.185 675.321H149.23V681.357H143.185V675.321Z" fill="white"/>
<path opacity="0.52" d="M135.067 675.321H141.113V681.357H135.067V675.321Z" fill="white"/>
<path opacity="0.46" d="M127.122 675.321H133.167V681.357H127.122V675.321Z" fill="white"/>
<path opacity="0.27" d="M119.004 675.321H125.05V681.357H119.004V675.321Z" fill="white"/>
<path opacity="0.46" d="M110.887 675.321H116.932V681.357H110.887V675.321Z" fill="white"/>
<path opacity="0.66" d="M191.547 683.426H197.592V689.461H191.547V683.426Z" fill="white"/>
<path opacity="0.7" d="M183.602 683.426H189.647V689.461H183.602V683.426Z" fill="white"/>
<path opacity="0.94" d="M175.484 683.426H181.529V689.461H175.484V683.426Z" fill="white"/>
<path opacity="0.5" d="M167.366 683.426H173.411V689.461H167.366V683.426Z" fill="white"/>
<path opacity="0.12" d="M159.248 683.426H165.294V689.461H159.248V683.426Z" fill="white"/>
<path opacity="0.36" d="M151.303 683.426H157.348V689.461H151.303V683.426Z" fill="white"/>
<path opacity="0.51" d="M143.185 683.426H149.23V689.461H143.185V683.426Z" fill="white"/>
<path opacity="0.37" d="M135.067 683.426H141.113V689.461H135.067V683.426Z" fill="white"/>
<path opacity="0.66" d="M127.122 683.426H133.167V689.461H127.122V683.426Z" fill="white"/>
<path opacity="0.42" d="M119.004 683.426H125.05V689.461H119.004V683.426Z" fill="white"/>
<path opacity="0.5" d="M110.887 683.426H116.932V689.461H110.887V683.426Z" fill="white"/>
<path opacity="0.52" d="M191.547 691.358H197.592V697.394H191.547V691.358Z" fill="white"/>
<path opacity="0.61" d="M183.602 691.358H189.647V697.394H183.602V691.358Z" fill="white"/>
<path opacity="0.84" d="M175.484 691.358H181.529V697.394H175.484V691.358Z" fill="white"/>
<path opacity="0.89" d="M167.366 691.358H173.411V697.394H167.366V691.358Z" fill="white"/>
<path opacity="0.33" d="M159.248 691.358H165.294V697.394H159.248V691.358Z" fill="white"/>
<path opacity="0.25" d="M151.303 691.358H157.348V697.394H151.303V691.358Z" fill="white"/>
<path opacity="0.95" d="M143.185 691.358H149.23V697.394H143.185V691.358Z" fill="white"/>
<path opacity="0.09" d="M135.067 691.358H141.113V697.394H135.067V691.358Z" fill="white"/>
<path opacity="0.44" d="M127.122 691.358H133.167V697.394H127.122V691.358Z" fill="white"/>
<path opacity="0.51" d="M119.004 691.358H125.05V697.394H119.004V691.358Z" fill="white"/>
<path opacity="0.97" d="M110.887 691.358H116.932V697.394H110.887V691.358Z" fill="white"/>
<path opacity="0.26" d="M191.547 699.291H197.592V705.326H191.547V699.291Z" fill="white"/>
<path opacity="0.92" d="M183.602 699.291H189.647V705.326H183.602V699.291Z" fill="white"/>
<path opacity="0.33" d="M175.484 699.291H181.529V705.326H175.484V699.291Z" fill="white"/>
<path opacity="0.23" d="M167.366 699.291H173.411V705.326H167.366V699.291Z" fill="white"/>
<path opacity="0.42" d="M159.248 699.291H165.294V705.326H159.248V699.291Z" fill="white"/>
<path opacity="0.57" d="M151.303 699.291H157.348V705.326H151.303V699.291Z" fill="white"/>
<path opacity="0.73" d="M143.185 699.291H149.23V705.326H143.185V699.291Z" fill="white"/>
<path opacity="0.87" d="M135.067 699.291H141.113V705.326H135.067V699.291Z" fill="white"/>
<path opacity="0.22" d="M127.122 699.291H133.167V705.326H127.122V699.291Z" fill="white"/>
<path opacity="0.89" d="M119.004 699.291H125.05V705.326H119.004V699.291Z" fill="white"/>
<path opacity="0.73" d="M110.887 699.291H116.932V705.326H110.887V699.291Z" fill="white"/>
<path opacity="0.35" d="M191.547 707.223H197.592V713.259H191.547V707.223Z" fill="white"/>
<path opacity="0.81" d="M183.602 707.223H189.647V713.259H183.602V707.223Z" fill="white"/>
<path opacity="0.56" d="M175.484 707.223H181.529V713.259H175.484V707.223Z" fill="white"/>
<path opacity="0.81" d="M167.366 707.223H173.411V713.259H167.366V707.223Z" fill="white"/>
<path opacity="0.87" d="M159.248 707.223H165.294V713.259H159.248V707.223Z" fill="white"/>
<path opacity="0.39" d="M151.303 707.223H157.348V713.259H151.303V707.223Z" fill="white"/>
<path opacity="0.31" d="M143.185 707.223H149.23V713.259H143.185V707.223Z" fill="white"/>
<path opacity="0.98" d="M135.067 707.223H141.113V713.259H135.067V707.223Z" fill="white"/>
<path opacity="0.17" d="M127.122 707.223H133.167V713.259H127.122V707.223Z" fill="white"/>
<path opacity="0.06" d="M119.004 707.223H125.05V713.259H119.004V707.223Z" fill="white"/>
<path opacity="0.57" d="M110.887 707.223H116.932V713.259H110.887V707.223Z" fill="white"/>
<path opacity="0.67" d="M191.547 715.156H197.592V721.191H191.547V715.156Z" fill="white"/>
<path opacity="0.83" d="M183.602 715.156H189.647V721.191H183.602V715.156Z" fill="white"/>
<path opacity="0.99" d="M175.484 715.156H181.529V721.191H175.484V715.156Z" fill="white"/>
<path opacity="0.62" d="M167.366 715.156H173.411V721.191H167.366V715.156Z" fill="white"/>
<path opacity="0.87" d="M159.248 715.156H165.294V721.191H159.248V715.156Z" fill="white"/>
<path opacity="0.14" d="M151.303 715.156H157.348V721.191H151.303V715.156Z" fill="white"/>
<path opacity="0.12" d="M143.185 715.156H149.23V721.191H143.185V715.156Z" fill="white"/>
<path opacity="0.11" d="M135.067 715.156H141.113V721.191H135.067V715.156Z" fill="white"/>
<path opacity="0.39" d="M127.122 715.156H133.167V721.191H127.122V715.156Z" fill="white"/>
<path opacity="0.58" d="M119.004 715.156H125.05V721.191H119.004V715.156Z" fill="white"/>
<path opacity="0.54" d="M110.887 715.156H116.932V721.191H110.887V715.156Z" fill="white"/>
<path opacity="0.99" d="M191.547 723.088H197.592V729.124H191.547V723.088Z" fill="white"/>
<path opacity="0.28" d="M183.602 723.088H189.647V729.124H183.602V723.088Z" fill="white"/>
<path opacity="0.78" d="M175.484 723.088H181.529V729.124H175.484V723.088Z" fill="white"/>
<path opacity="0.65" d="M167.366 723.088H173.411V729.124H167.366V723.088Z" fill="white"/>
<path opacity="0.32" d="M159.248 723.088H165.294V729.124H159.248V723.088Z" fill="white"/>
<path opacity="0.55" d="M151.303 723.088H157.348V729.124H151.303V723.088Z" fill="white"/>
<path opacity="0.4" d="M143.185 723.088H149.23V729.124H143.185V723.088Z" fill="white"/>
<path opacity="0.22" d="M135.067 723.088H141.113V729.124H135.067V723.088Z" fill="white"/>
<path opacity="0.87" d="M127.122 723.088H133.167V729.124H127.122V723.088Z" fill="white"/>
<path opacity="0.02" d="M119.004 723.088H125.05V729.124H119.004V723.088Z" fill="white"/>
<path opacity="0.39" d="M110.887 723.088H116.932V729.124H110.887V723.088Z" fill="white"/>
<path opacity="0.89" d="M191.547 731.021H197.592V737.056H191.547V731.021Z" fill="white"/>
<path opacity="0.97" d="M183.602 731.021H189.647V737.056H183.602V731.021Z" fill="white"/>
<path opacity="0.79" d="M175.484 731.021H181.529V737.056H175.484V731.021Z" fill="white"/>
<path opacity="0.41" d="M167.366 731.021H173.411V737.056H167.366V731.021Z" fill="white"/>
<path opacity="0.13" d="M159.248 731.021H165.294V737.056H159.248V731.021Z" fill="white"/>
<path opacity="0.9" d="M151.303 731.021H157.348V737.056H151.303V731.021Z" fill="white"/>
<path opacity="0.98" d="M143.185 731.021H149.23V737.056H143.185V731.021Z" fill="white"/>
<path opacity="0.67" d="M135.067 731.021H141.113V737.056H135.067V731.021Z" fill="white"/>
<path opacity="0.65" d="M127.122 731.021H133.167V737.056H127.122V731.021Z" fill="white"/>
<path opacity="0.89" d="M119.004 731.021H125.05V737.056H119.004V731.021Z" fill="white"/>
<path opacity="0.98" d="M110.887 731.021H116.932V737.056H110.887V731.021Z" fill="white"/>
<path opacity="0.29" d="M191.547 738.953H197.592V744.989H191.547V738.953Z" fill="white"/>
<path opacity="0.74" d="M183.602 738.953H189.647V744.989H183.602V738.953Z" fill="white"/>
<path opacity="0.64" d="M175.484 738.953H181.529V744.989H175.484V738.953Z" fill="white"/>
<path opacity="0.65" d="M167.366 738.953H173.411V744.989H167.366V738.953Z" fill="white"/>
<path opacity="0.07" d="M159.248 738.953H165.294V744.989H159.248V738.953Z" fill="white"/>
<path opacity="0.16" d="M151.303 738.953H157.348V744.989H151.303V738.953Z" fill="white"/>
<path opacity="0.84" d="M143.185 738.953H149.23V744.989H143.185V738.953Z" fill="white"/>
<path opacity="0.88" d="M135.067 738.953H141.113V744.989H135.067V738.953Z" fill="white"/>
<path opacity="0.57" d="M127.122 738.953H133.167V744.989H127.122V738.953Z" fill="white"/>
<path opacity="0.31" d="M119.004 738.953H125.05V744.989H119.004V738.953Z" fill="white"/>
<path opacity="0.03" d="M110.887 738.953H116.932V744.989H110.887V738.953Z" fill="white"/>
<path opacity="0.3" d="M191.547 746.885H197.592V752.921H191.547V746.885Z" fill="white"/>
<path opacity="0.59" d="M183.602 746.885H189.647V752.921H183.602V746.885Z" fill="white"/>
<path opacity="0.93" d="M175.484 746.885H181.529V752.921H175.484V746.885Z" fill="white"/>
<path opacity="0.06" d="M167.366 746.885H173.411V752.921H167.366V746.885Z" fill="white"/>
<path opacity="0.74" d="M159.248 746.885H165.294V752.921H159.248V746.885Z" fill="white"/>
<path opacity="0.22" d="M151.303 746.885H157.348V752.921H151.303V746.885Z" fill="white"/>
<path opacity="0.51" d="M143.185 746.885H149.23V752.921H143.185V746.885Z" fill="white"/>
<path opacity="0.7" d="M135.067 746.885H141.113V752.921H135.067V746.885Z" fill="white"/>
<path opacity="0.47" d="M127.122 746.885H133.167V752.921H127.122V746.885Z" fill="white"/>
<path opacity="0.08" d="M119.004 746.885H125.05V752.921H119.004V746.885Z" fill="white"/>
<path opacity="0.93" d="M110.887 746.885H116.932V752.921H110.887V746.885Z" fill="white"/>
<path opacity="0.81" d="M191.547 754.818H197.592V760.854H191.547V754.818Z" fill="white"/>
<path opacity="0.9" d="M183.602 754.818H189.647V760.854H183.602V754.818Z" fill="white"/>
<path opacity="0.55" d="M175.484 754.818H181.529V760.854H175.484V754.818Z" fill="white"/>
<path opacity="0.14" d="M167.366 754.818H173.411V760.854H167.366V754.818Z" fill="white"/>
<path opacity="0.66" d="M159.248 754.818H165.294V760.854H159.248V754.818Z" fill="white"/>
<path opacity="0.92" d="M151.303 754.818H157.348V760.854H151.303V754.818Z" fill="white"/>
<path opacity="0.4" d="M143.185 754.818H149.23V760.854H143.185V754.818Z" fill="white"/>
<path opacity="0.6" d="M135.067 754.818H141.113V760.854H135.067V754.818Z" fill="white"/>
<path opacity="0.99" d="M127.122 754.818H133.167V760.854H127.122V754.818Z" fill="white"/>
<path opacity="0.68" d="M119.004 754.818H125.05V760.854H119.004V754.818Z" fill="white"/>
<path opacity="0.01" d="M110.887 754.818H116.932V760.854H110.887V754.818Z" fill="white"/>
<path opacity="0.82" d="M191.547 762.75H197.592V768.786H191.547V762.75Z" fill="white"/>
<path opacity="0.92" d="M183.602 762.75H189.647V768.786H183.602V762.75Z" fill="white"/>
<path opacity="0.29" d="M175.484 762.75H181.529V768.786H175.484V762.75Z" fill="white"/>
<path opacity="0.73" d="M167.366 762.75H173.411V768.786H167.366V762.75Z" fill="white"/>
<path opacity="0.42" d="M159.248 762.75H165.294V768.786H159.248V762.75Z" fill="white"/>
<path opacity="0.06" d="M151.303 762.75H157.348V768.786H151.303V762.75Z" fill="white"/>
<path opacity="0.7" d="M143.185 762.75H149.23V768.786H143.185V762.75Z" fill="white"/>
<path opacity="0.97" d="M135.067 762.75H141.113V768.786H135.067V762.75Z" fill="white"/>
<path opacity="0.51" d="M127.122 762.75H133.167V768.786H127.122V762.75Z" fill="white"/>
<path opacity="0.69" d="M119.004 762.75H125.05V768.786H119.004V762.75Z" fill="white"/>
<path opacity="0.49" d="M110.887 762.75H116.932V768.786H110.887V762.75Z" fill="white"/>
<path opacity="0.45" d="M191.547 770.683H197.592V776.718H191.547V770.683Z" fill="white"/>
<path opacity="0.46" d="M183.602 770.683H189.647V776.718H183.602V770.683Z" fill="white"/>
<path opacity="0.04" d="M175.484 770.683H181.529V776.718H175.484V770.683Z" fill="white"/>
<path opacity="0.56" d="M167.366 770.683H173.411V776.718H167.366V770.683Z" fill="white"/>
<path opacity="0.4" d="M159.248 770.683H165.294V776.718H159.248V770.683Z" fill="white"/>
<path opacity="0.59" d="M151.303 770.683H157.348V776.718H151.303V770.683Z" fill="white"/>
<path opacity="0.82" d="M143.185 770.683H149.23V776.718H143.185V770.683Z" fill="white"/>
<path opacity="0.99" d="M135.067 770.683H141.113V776.718H135.067V770.683Z" fill="white"/>
<path opacity="0.1" d="M127.122 770.683H133.167V776.718H127.122V770.683Z" fill="white"/>
<path opacity="0.87" d="M119.004 770.683H125.05V776.718H119.004V770.683Z" fill="white"/>
<path d="M110.887 770.683H116.932V776.718H110.887V770.683Z" fill="white"/>
<path d="M293.625 596.859H350.622V775.167H293.625V596.859Z" fill="#333333"/>
<path d="M324.714 587.892H350.622V597.894H324.714V587.892Z" fill="#333333"/>
<path d="M335.596 582.029H350.622V587.892H335.596V582.029Z" fill="#333333"/>
<path opacity="0.25" d="M317.633 609.448H326.96V618.76H317.633V609.448Z" fill="white"/>
<path opacity="0.15" d="M317.633 632.383H326.96V641.695H317.633V632.383Z" fill="white"/>
<path opacity="0.19" d="M317.633 678.08H326.96V687.392H317.633V678.08Z" fill="white"/>
<path opacity="0.17" d="M317.633 700.843H326.96V710.155H317.633V700.843Z" fill="white"/>
<path opacity="0.22" d="M317.633 723.606H326.96V732.918H317.633V723.606Z" fill="white"/>
<path d="M317.633 746.541H326.96V755.853H317.633V746.541Z" fill="white"/>
<path d="M335.941 696.187H389.312V711.879H335.941V696.187Z" fill="#333333"/>
<path d="M309.342 696.187H335.941V711.879H309.342V696.187Z" fill="#4D4D4D"/>
<path d="M389.312 696.187L372.73 688.255L335.941 696.187H389.312Z" fill="#333333"/>
<path d="M372.73 688.255L335.941 696.187H309.342L372.73 688.255Z" fill="#4D4D4D"/>
<path d="M323.505 707.223H401.575V778.615H323.505V707.223Z" fill="#333333"/>
<path d="M297.597 707.223H323.505V778.615H297.597V707.223Z" fill="#4D4D4D"/>
<path opacity="0.81" d="M303.642 712.224H317.633V717.398H303.642V712.224Z" fill="white"/>
<path opacity="0.76" d="M303.642 721.709H317.633V726.882H303.642V721.709Z" fill="white"/>
<path opacity="0.32" d="M303.642 731.193H317.633V736.367H303.642V731.193Z" fill="white"/>
<path opacity="0.49" d="M303.642 740.85H317.633V746.023H303.642V740.85Z" fill="white"/>
<path opacity="0.99" d="M303.642 759.819H317.633V764.992H303.642V759.819Z" fill="white"/>
<path opacity="0.1" d="M375.148 712.224H389.139V717.398H375.148V712.224Z" fill="white"/>
<path opacity="0.04" d="M355.631 712.224H369.622V717.398H355.631V712.224Z" fill="white"/>
<path opacity="0.07" d="M335.941 712.224H349.931V717.398H335.941V712.224Z" fill="white"/>
<path opacity="0.06" d="M375.148 721.709H389.139V726.882H375.148V721.709Z" fill="white"/>
<path opacity="0.44" d="M355.631 721.709H369.622V726.882H355.631V721.709Z" fill="white"/>
<path opacity="0.24" d="M335.941 721.709H349.931V726.882H335.941V721.709Z" fill="white"/>
<path opacity="0.55" d="M375.148 731.193H389.139V736.367H375.148V731.193Z" fill="white"/>
<path opacity="0.02" d="M355.631 731.193H369.622V736.367H355.631V731.193Z" fill="white"/>
<path opacity="0.14" d="M335.941 731.193H349.931V736.367H335.941V731.193Z" fill="white"/>
<path opacity="0.43" d="M375.148 740.85H389.139V746.023H375.148V740.85Z" fill="white"/>
<path opacity="0.41" d="M355.631 740.85H369.622V746.023H355.631V740.85Z" fill="white"/>
<path opacity="0.46" d="M335.941 740.85H349.931V746.023H335.941V740.85Z" fill="white"/>
<path opacity="0.45" d="M375.148 750.335H389.139V755.508H375.148V750.335Z" fill="white"/>
<path opacity="0.33" d="M355.631 750.335H369.622V755.508H355.631V750.335Z" fill="white"/>
<path opacity="0.05" d="M335.941 750.335H349.931V755.508H335.941V750.335Z" fill="white"/>
<path opacity="0.27" d="M375.148 759.819H389.139V764.993H375.148V759.819Z" fill="white"/>
<path opacity="0.15" d="M355.631 759.819H369.622V764.993H355.631V759.819Z" fill="white"/>
<path opacity="0.7" d="M335.941 759.819H349.931V764.993H335.941V759.819Z" fill="white"/>
<path d="M703.317 635.832H751.679V784.651H703.317V635.832Z" fill="#333333"/>
<path d="M648.219 635.832H703.144V784.651H648.219V635.832Z" fill="#4D4D4D"/>
<path d="M703.317 648.42H751.679V651.007H703.317V648.42Z" fill="#4D4D4D"/>
<path d="M648.219 648.42H703.144V651.007H648.219V648.42Z" fill="#333333"/>
<path opacity="0.32" d="M728.361 653.939H733.543V659.112H728.361V653.939Z" fill="white"/>
<path opacity="0.25" d="M721.28 653.939H726.462V659.112H721.28V653.939Z" fill="white"/>
<path opacity="0.12" d="M707.117 653.939H712.298V659.112H707.117V653.939Z" fill="white"/>
<path opacity="0.22" d="M728.361 661.009H733.543V666.182H728.361V661.009Z" fill="white"/>
<path opacity="0.47" d="M721.28 661.009H726.462V666.182H721.28V661.009Z" fill="white"/>
<path opacity="0.22" d="M714.198 661.009H719.38V666.182H714.198V661.009Z" fill="white"/>
<path opacity="0.32" d="M707.117 661.009H712.298V666.182H707.117V661.009Z" fill="white"/>
<path opacity="0.18" d="M728.361 668.079H733.543V673.252H728.361V668.079Z" fill="white"/>
<path opacity="0.28" d="M721.28 668.079H726.462V673.252H721.28V668.079Z" fill="white"/>
<path opacity="0.2" d="M707.117 668.079H712.298V673.252H707.117V668.079Z" fill="white"/>
<path opacity="0.33" d="M728.361 675.149H733.543V680.323H728.361V675.149Z" fill="white"/>
<path opacity="0.05" d="M721.28 675.149H726.462V680.323H721.28V675.149Z" fill="white"/>
<path opacity="0.08" d="M714.198 675.149H719.38V680.323H714.198V675.149Z" fill="white"/>
<path opacity="0.08" d="M721.28 682.219H726.462V687.393H721.28V682.219Z" fill="white"/>
<path opacity="0.02" d="M714.198 682.219H719.38V687.393H714.198V682.219Z" fill="white"/>
<path opacity="0.05" d="M728.361 689.29H733.543V694.463H728.361V689.29Z" fill="white"/>
<path opacity="0.2" d="M721.28 689.29H726.462V694.463H721.28V689.29Z" fill="white"/>
<path opacity="0.23" d="M714.198 689.29H719.38V694.463H714.198V689.29Z" fill="white"/>
<path opacity="0.14" d="M728.361 696.36H733.543V701.533H728.361V696.36Z" fill="white"/>
<path opacity="0.24" d="M714.198 696.36H719.38V701.533H714.198V696.36Z" fill="white"/>
<path opacity="0.23" d="M728.361 703.43H733.543V708.603H728.361V703.43Z" fill="white"/>
<path opacity="0.02" d="M721.28 703.43H726.462V708.603H721.28V703.43Z" fill="white"/>
<path opacity="0.04" d="M714.198 703.43H719.38V708.603H714.198V703.43Z" fill="white"/>
<path opacity="0.3" d="M707.117 703.43H712.298V708.603H707.117V703.43Z" fill="white"/>
<path opacity="0.4" d="M707.117 710.328H712.298V715.501H707.117V710.328Z" fill="white"/>
<path opacity="0.12" d="M728.361 717.398H733.543V722.572H728.361V717.398Z" fill="white"/>
<path opacity="0.19" d="M714.198 717.398H719.38V722.572H714.198V717.398Z" fill="white"/>
<path opacity="0.43" d="M707.117 717.398H712.298V722.572H707.117V717.398Z" fill="white"/>
<path opacity="0.42" d="M721.28 724.468H726.462V729.642H721.28V724.468Z" fill="white"/>
<path opacity="0.31" d="M707.117 724.468H712.298V729.642H707.117V724.468Z" fill="white"/>
<path opacity="0.31" d="M721.28 731.539H726.462V736.712H721.28V731.539Z" fill="white"/>
<path opacity="0.33" d="M707.117 731.539H712.298V736.712H707.117V731.539Z" fill="white"/>
<path opacity="0.17" d="M721.28 738.609H726.462V743.782H721.28V738.609Z" fill="white"/>
<path opacity="0.01" d="M714.198 738.609H719.38V743.782H714.198V738.609Z" fill="white"/>
<path opacity="0.48" d="M707.117 738.609H712.298V743.782H707.117V738.609Z" fill="white"/>
<path opacity="0.28" d="M728.361 745.679H733.543V750.852H728.361V745.679Z" fill="white"/>
<path opacity="0.02" d="M721.28 745.679H726.462V750.852H721.28V745.679Z" fill="white"/>
<path opacity="0.17" d="M714.198 745.679H719.38V750.852H714.198V745.679Z" fill="white"/>
<path opacity="0.42" d="M707.117 745.679H712.298V750.852H707.117V745.679Z" fill="white"/>
<path opacity="0.11" d="M728.361 752.749H733.543V757.923H728.361V752.749Z" fill="white"/>
<path opacity="0.02" d="M721.28 752.749H726.462V757.923H721.28V752.749Z" fill="white"/>
<path opacity="0.3" d="M707.117 752.749H712.298V757.923H707.117V752.749Z" fill="white"/>
<path opacity="0.19" d="M728.361 759.82H733.543V764.993H728.361V759.82Z" fill="white"/>
<path opacity="0.05" d="M721.28 759.82H726.462V764.993H721.28V759.82Z" fill="white"/>
<path opacity="0.2" d="M707.117 759.82H712.298V764.993H707.117V759.82Z" fill="white"/>
<path opacity="0.27" d="M721.28 766.89H726.462V772.063H721.28V766.89Z" fill="white"/>
<path opacity="0.13" d="M714.198 766.89H719.38V772.063H714.198V766.89Z" fill="white"/>
<path opacity="0.46" d="M728.361 773.96H733.543V779.133H728.361V773.96Z" fill="white"/>
<path opacity="0.12" d="M721.28 773.96H726.462V779.133H721.28V773.96Z" fill="white"/>
<path opacity="0.04" d="M714.198 773.96H719.38V779.133H714.198V773.96Z" fill="white"/>
<path opacity="0.3" d="M707.117 773.96H712.298V779.133H707.117V773.96Z" fill="white"/>
<path opacity="0.08" d="M714.198 653.939H719.38V659.112H714.198V653.939Z" fill="white"/>
<path opacity="0.08" d="M714.198 668.079H719.38V673.252H714.198V668.079Z" fill="white"/>
<path opacity="0.01" d="M707.117 675.149H712.298V680.323H707.117V675.149Z" fill="white"/>
<path opacity="0.15" d="M728.361 682.219H733.543V687.393H728.361V682.219Z" fill="white"/>
<path opacity="0.12" d="M707.117 682.219H712.298V687.393H707.117V682.219Z" fill="white"/>
<path opacity="0.13" d="M721.28 696.36H726.462V701.533H721.28V696.36Z" fill="white"/>
<path opacity="0.07" d="M707.117 696.36H712.298V701.533H707.117V696.36Z" fill="white"/>
<path opacity="0.02" d="M728.361 710.328H733.543V715.501H728.361V710.328Z" fill="white"/>
<path opacity="0.02" d="M721.28 710.328H726.462V715.501H721.28V710.328Z" fill="white"/>
<path opacity="0.14" d="M714.198 710.328H719.38V715.501H714.198V710.328Z" fill="white"/>
<path opacity="0.09" d="M728.361 724.468H733.543V729.642H728.361V724.468Z" fill="white"/>
<path opacity="0.02" d="M714.198 724.468H719.38V729.642H714.198V724.468Z" fill="white"/>
<path opacity="0.19" d="M728.361 731.539H733.543V736.712H728.361V731.539Z" fill="white"/>
<path opacity="0.06" d="M714.198 731.539H719.38V736.712H714.198V731.539Z" fill="white"/>
<path opacity="0.16" d="M728.361 738.609H733.543V743.782H728.361V738.609Z" fill="white"/>
<path opacity="0.04" d="M714.198 752.749H719.38V757.923H714.198V752.749Z" fill="white"/>
<path opacity="0.04" d="M714.198 759.82H719.38V764.993H714.198V759.82Z" fill="white"/>
<path opacity="0.18" d="M707.117 766.89H712.298V772.063H707.117V766.89Z" fill="white"/>
<g opacity="0.7">
<path opacity="0.7" d="M692.781 651.007H698.135V778.098H692.781V651.007Z" fill="#E6E6E6"/>
<path opacity="0.7" d="M683.627 651.007H688.981V778.098H683.627V651.007Z" fill="#E6E6E6"/>
<path opacity="0.7" d="M674.3 651.007H679.654V778.098H674.3V651.007Z" fill="#E6E6E6"/>
<path opacity="0.7" d="M664.973 651.007H670.327V778.098H664.973V651.007Z" fill="#E6E6E6"/>
<path opacity="0.7" d="M655.646 651.007H661V778.098H655.646V651.007Z" fill="#E6E6E6"/>
</g>
<path d="M620.584 778.099H728.016L620.584 684.634V778.099Z" fill="#333333"/>
<path d="M629.738 761.544H666.7V782.237H629.738V761.544Z" fill="#4D4D4D"/>
<path d="M632.502 756.716H663.937V766.373H632.502V756.716Z" fill="#4D4D4D"/>
<path d="M636.129 759.647H660.483L652.019 745.507H644.592L636.129 759.647Z" fill="#4D4D4D"/>
<path d="M639.583 765.683H656.855V778.271H639.583V765.683Z" fill="white"/>
<path d="M637.511 770.684H658.928V773.27H637.511V770.684Z" fill="#4D4D4D"/>
<path d="M464.79 795.515C464.272 808.966 474.635 820.52 488.28 821.037C501.752 821.554 513.325 811.035 513.843 797.585C514.361 784.134 503.998 772.58 490.353 772.063C476.881 771.546 465.481 782.065 464.79 795.515Z" fill="#333333"/>
<path d="M468.935 788.79C468.59 796.55 474.635 803.103 482.408 803.448C490.18 803.793 496.743 797.757 497.089 789.997C497.434 782.237 491.389 775.684 483.617 775.339C475.844 774.994 469.281 781.03 468.935 788.79Z" fill="#4D4D4D"/>
<path d="M711.435 770.166C711.435 773.443 714.198 776.202 717.48 776.202C720.762 776.202 723.525 773.443 723.525 770.166C723.525 766.89 720.762 764.131 717.48 764.131C714.198 764.131 711.435 766.717 711.435 770.166Z" fill="#333333"/>
<path d="M709.362 776.202C709.362 780.685 712.989 784.307 717.48 784.307C721.971 784.307 725.598 780.685 725.598 776.202C725.598 771.718 721.971 768.097 717.48 768.097C712.989 768.097 709.362 771.718 709.362 776.202Z" fill="#333333"/>
<path d="M713.507 764.993C713.507 767.235 715.235 769.132 717.48 769.132C719.725 769.132 721.453 767.235 721.453 764.993C721.453 762.751 719.725 760.854 717.48 760.854C715.235 760.854 713.507 762.751 713.507 764.993Z" fill="#333333"/>
<path d="M712.298 770.166C712.298 772.063 713.853 773.615 715.753 773.615C717.653 773.615 719.207 772.063 719.207 770.166C719.207 768.269 717.653 766.717 715.753 766.717C713.853 766.717 712.298 768.269 712.298 770.166Z" fill="#4D4D4D"/>
<path d="M714.026 765.51C714.026 766.89 715.235 768.097 716.616 768.097C717.998 768.097 719.207 766.89 719.207 765.51C719.207 764.131 717.998 762.923 716.616 762.923C715.235 762.751 714.026 763.958 714.026 765.51Z" fill="#4D4D4D"/>
<path d="M596.23 782.754C596.23 787.066 599.857 790.687 604.175 790.687C608.493 790.687 612.121 787.066 612.121 782.754C612.121 778.443 608.666 774.822 604.175 774.822C599.857 774.822 596.23 778.443 596.23 782.754Z" fill="#333333"/>
<path d="M598.994 776.029C598.994 778.961 601.239 781.375 604.175 781.375C607.112 781.375 609.357 778.961 609.357 776.029C609.357 773.098 607.112 770.683 604.175 770.683C601.412 770.683 598.994 773.098 598.994 776.029Z" fill="#333333"/>
<path d="M599.685 776.546C599.685 778.443 601.239 779.995 603.139 779.995C605.039 779.995 606.594 778.443 606.594 776.546C606.594 774.649 605.039 773.097 603.139 773.097C601.239 773.097 599.685 774.649 599.685 776.546Z" fill="#4D4D4D"/>
<path d="M606.939 788.618C607.803 796.895 615.23 802.758 623.347 801.896C631.638 801.034 637.511 793.619 636.647 785.514C635.783 777.236 628.356 771.373 620.239 772.236C612.121 773.098 606.075 780.34 606.939 788.618Z" fill="#333333"/>
<path d="M610.739 775.34C611.257 780.858 616.093 784.997 621.62 784.479C626.975 783.962 630.947 778.961 630.429 773.443C629.911 767.925 625.075 763.786 619.548 764.303C614.021 764.821 610.221 769.821 610.739 775.34Z" fill="#333333"/>
<path d="M612.121 776.374C612.466 779.996 615.748 782.582 619.202 782.237C622.829 781.892 625.42 778.616 625.075 775.167C624.729 771.546 621.448 768.959 617.993 769.304C614.366 769.649 611.775 772.925 612.121 776.374Z" fill="#4D4D4D"/>
<path d="M528.697 781.375C528.697 788.963 534.742 794.998 542.342 794.998C549.942 794.998 555.987 788.963 555.987 781.375C555.987 773.787 549.942 767.752 542.342 767.752C534.915 767.752 528.697 773.787 528.697 781.375Z" fill="#333333"/>
<path d="M533.533 769.649C533.533 774.822 537.506 778.961 542.514 778.961C547.523 778.961 551.496 774.822 551.496 769.649C551.496 764.475 547.523 760.337 542.514 760.337C537.506 760.509 533.533 764.648 533.533 769.649Z" fill="#333333"/>
<path d="M530.769 781.375C530.769 785.686 534.224 789.307 538.715 789.307C543.033 789.307 546.66 785.859 546.66 781.375C546.66 777.064 543.205 773.443 538.715 773.443C534.397 773.615 530.769 777.064 530.769 781.375Z" fill="#4D4D4D"/>
<path d="M534.742 770.856C534.742 774.132 537.333 776.891 540.787 776.891C544.069 776.891 546.832 774.305 546.832 770.856C546.832 767.579 544.242 764.993 540.787 764.993C537.333 764.82 534.742 767.579 534.742 770.856Z" fill="#4D4D4D"/>
<path d="M558.923 792.756C558.923 802.413 566.868 810.345 576.54 810.345C586.213 810.345 594.158 802.413 594.158 792.756C594.158 783.099 586.213 775.167 576.54 775.167C566.868 775.167 558.923 782.927 558.923 792.756Z" fill="#333333"/>
<path d="M564.968 777.581C564.968 784.134 570.15 789.48 576.54 789.48C582.931 789.48 588.113 784.134 588.113 777.581C588.113 771.028 582.931 765.682 576.54 765.682C570.15 765.682 564.968 771.028 564.968 777.581Z" fill="#333333"/>
<path d="M566.523 779.133C566.523 783.444 569.977 786.721 574.295 786.721C578.613 786.721 582.068 783.272 582.068 779.133C582.068 774.822 578.613 771.373 574.295 771.373C569.977 771.373 566.523 774.822 566.523 779.133Z" fill="#4D4D4D"/>
<path d="M516.261 779.65C516.261 781.72 517.815 783.272 519.715 783.272C521.615 783.272 523.17 781.72 523.17 779.65C523.17 777.581 521.615 776.029 519.715 776.029C517.815 776.029 516.261 777.581 516.261 779.65Z" fill="#333333"/>
<path d="M441.991 775.34C441.991 782.065 447.346 787.411 454.082 787.411C460.818 787.411 466.172 782.065 466.172 775.34C466.172 768.614 460.818 763.268 454.082 763.268C447.346 763.268 441.991 768.614 441.991 775.34Z" fill="#333333"/>
<path d="M437.846 787.411C437.846 796.378 445.1 803.621 454.082 803.621C463.063 803.621 470.317 796.378 470.317 787.411C470.317 778.444 463.063 771.201 454.082 771.201C445.1 771.201 437.846 778.444 437.846 787.411Z" fill="#333333"/>
<path d="M446.136 764.993C446.136 769.477 449.764 773.27 454.082 773.27C458.4 773.27 462.027 769.649 462.027 764.993C462.027 760.509 458.4 756.716 454.082 756.716C449.764 756.716 446.136 760.509 446.136 764.993Z" fill="#333333"/>
<path d="M443.891 775.34C443.891 779.133 447 782.237 450.8 782.237C454.6 782.237 457.709 779.133 457.709 775.34C457.709 771.546 454.6 768.442 450.8 768.442C447 768.442 443.891 771.546 443.891 775.34Z" fill="#4D4D4D"/>
<path d="M447.173 766.028C447.173 768.959 449.591 771.373 452.527 771.373C455.463 771.373 457.881 768.959 457.881 766.028C457.881 763.096 455.463 760.682 452.527 760.682C449.591 760.682 447.173 763.096 447.173 766.028Z" fill="#4D4D4D"/>
<path d="M396.911 790.515C396.911 799.482 404.165 806.724 413.147 806.724C422.128 806.724 429.383 799.482 429.383 790.515C429.383 781.548 422.128 774.305 413.147 774.305C404.165 774.477 396.911 781.72 396.911 790.515Z" fill="#333333"/>
<path d="M402.611 776.719C402.611 782.755 407.447 787.756 413.147 787.756C419.02 787.756 423.856 782.927 423.856 776.719C423.856 770.684 419.02 765.855 413.147 765.855C407.275 765.855 402.611 770.684 402.611 776.719Z" fill="#333333"/>
<path d="M403.993 778.099C403.993 782.065 407.102 785.169 411.074 785.169C415.047 785.169 418.156 782.065 418.156 778.099C418.156 774.133 415.047 771.029 411.074 771.029C407.102 771.029 403.993 774.133 403.993 778.099Z" fill="#4D4D4D"/>
<path d="M132.649 797.068C132.649 811.898 144.567 823.797 159.421 823.797C174.275 823.797 186.193 811.898 186.193 797.068C186.193 782.237 174.275 770.339 159.421 770.339C144.567 770.339 132.649 782.41 132.649 797.068Z" fill="#333333"/>
<path d="M136.622 789.653C136.622 798.102 143.531 805 151.994 805C160.457 805 167.366 798.102 167.366 789.653C167.366 781.203 160.457 774.305 151.994 774.305C143.531 774.305 136.622 781.203 136.622 789.653Z" fill="#4D4D4D"/>
<path d="M98.2778 785.514C98.2778 797.93 108.468 808.104 120.904 808.104C133.34 808.104 143.531 797.93 143.531 785.514C143.531 773.098 133.34 762.924 120.904 762.924C108.296 762.924 98.2778 772.925 98.2778 785.514Z" fill="#333333"/>
<path d="M101.732 779.133C101.732 786.376 107.605 792.067 114.686 792.067C121.941 792.067 127.64 786.204 127.64 779.133C127.64 772.063 121.768 766.2 114.686 766.2C107.605 766.2 101.732 772.063 101.732 779.133Z" fill="#4D4D4D"/>
<path d="M155.966 789.135C155.966 801.551 166.157 811.725 178.593 811.725C191.029 811.725 201.219 801.551 201.219 789.135C201.219 776.719 191.029 766.545 178.593 766.545C165.984 766.545 155.966 776.546 155.966 789.135Z" fill="#333333"/>
<path d="M159.421 782.755C159.421 789.997 165.293 795.688 172.375 795.688C179.456 795.688 185.329 789.825 185.329 782.755C185.329 775.512 179.456 769.821 172.375 769.821C165.293 769.821 159.421 775.512 159.421 782.755Z" fill="#4D4D4D"/>
<path d="M225.745 794.309C225.745 806.725 235.936 816.899 248.372 816.899C260.808 816.899 270.998 806.725 270.998 794.309C270.998 781.893 260.808 771.719 248.372 771.719C235.763 771.719 225.745 781.893 225.745 794.309Z" fill="#333333"/>
<path d="M229.2 787.928C229.2 795.171 235.072 800.862 242.154 800.862C249.408 800.862 255.108 794.999 255.108 787.928C255.108 780.686 249.235 774.995 242.154 774.995C235.072 774.995 229.2 780.858 229.2 787.928Z" fill="#4D4D4D"/>
<path d="M253.035 790.515C253.035 802.931 263.226 813.105 275.662 813.105C288.098 813.105 298.288 802.931 298.288 790.515C298.288 778.099 288.098 767.925 275.662 767.925C263.226 767.925 253.035 777.926 253.035 790.515Z" fill="#333333"/>
<path d="M256.49 784.134C256.49 791.377 262.362 797.068 269.444 797.068C276.698 797.068 282.398 791.205 282.398 784.134C282.398 776.892 276.525 771.201 269.444 771.201C262.362 771.201 256.49 776.892 256.49 784.134Z" fill="#4D4D4D"/>
<path d="M235.418 786.893C235.418 794.136 241.29 799.826 248.372 799.826C255.626 799.826 261.326 793.963 261.326 786.893C261.326 779.65 255.453 773.96 248.372 773.96C241.118 773.96 235.418 779.823 235.418 786.893Z" fill="#4D4D4D"/>
<path d="M331.968 787.928C331.968 796.033 338.532 802.758 346.822 802.758C354.94 802.758 361.676 796.205 361.676 787.928C361.676 779.823 355.113 773.097 346.822 773.097C338.532 773.27 331.968 779.823 331.968 787.928Z" fill="#333333"/>
<path d="M334.214 783.789C334.214 788.445 338.014 792.239 342.677 792.239C347.34 792.239 351.14 788.445 351.14 783.789C351.14 779.133 347.34 775.339 342.677 775.339C338.014 775.339 334.214 779.133 334.214 783.789Z" fill="#4D4D4D"/>
<path d="M720.071 776.202C720.071 783.099 725.598 788.618 732.507 788.618C739.416 788.618 744.943 783.099 744.943 776.202C744.943 769.304 739.416 763.786 732.507 763.786C725.771 763.613 720.071 769.304 720.071 776.202Z" fill="#333333"/>
<path d="M715.926 788.618C715.926 797.93 723.353 805.345 732.68 805.345C742.006 805.345 749.433 797.93 749.433 788.618C749.433 779.306 742.006 771.891 732.68 771.891C723.353 771.891 715.926 779.306 715.926 788.618Z" fill="#333333"/>
<path d="M724.389 765.51C724.389 770.166 728.016 773.96 732.68 773.96C737.17 773.96 740.97 770.166 740.97 765.51C740.97 760.854 737.343 757.06 732.68 757.06C728.016 757.06 724.389 760.854 724.389 765.51Z" fill="#333333"/>
<path d="M721.971 776.201C721.971 780.168 725.253 783.444 729.225 783.444C733.198 783.444 736.479 780.168 736.479 776.201C736.479 772.235 733.198 768.959 729.225 768.959C725.253 768.959 721.971 772.235 721.971 776.201Z" fill="#4D4D4D"/>
<path d="M725.425 766.545C725.425 769.476 727.843 772.063 730.952 772.063C733.889 772.063 736.479 769.649 736.479 766.545C736.479 763.613 734.061 761.027 730.952 761.027C728.016 761.027 725.425 763.441 725.425 766.545Z" fill="#4D4D4D"/>
<path d="M661.173 781.03C661.173 786.549 665.664 791.032 671.191 791.032C676.718 791.032 681.209 786.549 681.209 781.03C681.209 775.512 676.718 771.029 671.191 771.029C665.664 771.029 661.173 775.512 661.173 781.03Z" fill="#333333"/>
<path d="M664.628 772.408C664.628 776.202 667.564 779.306 671.191 779.306C674.818 779.306 677.755 776.202 677.755 772.408C677.755 768.614 674.818 765.51 671.191 765.51C667.564 765.683 664.628 768.614 664.628 772.408Z" fill="#333333"/>
<path d="M662.728 781.03C662.728 784.307 665.319 786.893 668.6 786.893C671.882 786.893 674.473 784.307 674.473 781.03C674.473 777.926 671.882 775.34 668.6 775.34C665.319 775.167 662.728 777.754 662.728 781.03Z" fill="#4D4D4D"/>
<path d="M665.491 773.27C665.491 775.685 667.391 777.581 669.809 777.581C672.227 777.581 674.127 775.685 674.127 773.27C674.127 770.856 672.227 768.959 669.809 768.959C667.391 768.787 665.491 770.856 665.491 773.27Z" fill="#4D4D4D"/>
<rect x="310" y="626" width="883" height="445.319" fill="#181818"/>
<mask id="mask0_1_11586" style="mask-type:alpha" maskUnits="userSpaceOnUse" x="310" y="626" width="883" height="446">
<rect x="310" y="626" width="883" height="445.319" fill="#C4C4C4"/>
</mask>
<g mask="url(#mask0_1_11586)">
<rect width="231" height="1" transform="matrix(1 0 0 -1 491.5 777.239)" fill="white" fill-opacity="0.15"/>
<path d="M506.438 755.369L502.994 765.239H502.014L499.2 757.161L496.386 765.239H495.42L491.962 755.369H493.124L495.924 763.615L498.794 755.369L499.662 755.383L502.49 763.629L505.318 755.369H506.438ZM511.388 758.253C513.022 758.253 513.838 759.154 513.838 760.955V765.239H512.704V761.025C512.704 760.39 512.578 759.928 512.326 759.639C512.084 759.35 511.692 759.205 511.15 759.205C510.525 759.205 510.026 759.396 509.652 759.779C509.279 760.162 509.092 760.68 509.092 761.333V765.239H507.958V755.369H509.092V759.513C509.316 759.102 509.624 758.79 510.016 758.575C510.418 758.36 510.875 758.253 511.388 758.253ZM518.687 758.253C519.555 758.253 520.199 758.477 520.619 758.925C521.049 759.364 521.263 760.036 521.263 760.941V765.239H520.157V764.077C519.98 764.478 519.709 764.791 519.345 765.015C518.981 765.23 518.561 765.337 518.085 765.337C517.647 765.337 517.241 765.248 516.867 765.071C516.503 764.894 516.214 764.646 515.999 764.329C515.785 764.012 515.677 763.662 515.677 763.279C515.677 762.766 515.808 762.369 516.069 762.089C516.331 761.8 516.76 761.594 517.357 761.473C517.955 761.342 518.785 761.277 519.849 761.277H520.157V760.815C520.157 760.246 520.041 759.835 519.807 759.583C519.574 759.322 519.196 759.191 518.673 759.191C517.889 759.191 517.11 759.434 516.335 759.919L515.957 759.093C516.312 758.841 516.737 758.64 517.231 758.491C517.735 758.332 518.221 758.253 518.687 758.253ZM518.239 764.441C518.799 764.441 519.257 764.254 519.611 763.881C519.975 763.498 520.157 763.008 520.157 762.411V762.005H519.905C519.084 762.005 518.459 762.042 518.029 762.117C517.6 762.182 517.292 762.299 517.105 762.467C516.928 762.626 516.839 762.864 516.839 763.181C516.839 763.545 516.97 763.848 517.231 764.091C517.502 764.324 517.838 764.441 518.239 764.441ZM526.335 764.427C526.54 764.427 526.746 764.413 526.951 764.385L526.895 765.281C526.68 765.318 526.447 765.337 526.195 765.337C525.374 765.337 524.753 765.122 524.333 764.693C523.922 764.264 523.717 763.666 523.717 762.901V759.317H522.387V758.421H523.717V756.349H524.851V758.421H526.783V759.317H524.851V762.817C524.851 763.89 525.346 764.427 526.335 764.427ZM531.706 758.421H532.84V765.239H531.706V758.421ZM532.966 755.467V756.741H531.594V755.467H532.966ZM537.27 765.337C536.122 765.337 535.212 765.043 534.54 764.455L534.918 763.615C535.282 763.904 535.651 764.114 536.024 764.245C536.407 764.366 536.836 764.427 537.312 764.427C537.816 764.427 538.199 764.343 538.46 764.175C538.731 763.998 538.866 763.746 538.866 763.419C538.866 763.148 538.777 762.934 538.6 762.775C538.423 762.616 538.129 762.49 537.718 762.397L536.57 762.131C535.991 762 535.548 761.776 535.24 761.459C534.932 761.142 534.778 760.75 534.778 760.283C534.778 759.676 535.016 759.186 535.492 758.813C535.968 758.44 536.603 758.253 537.396 758.253C537.872 758.253 538.325 758.332 538.754 758.491C539.183 758.64 539.543 758.86 539.832 759.149L539.454 759.975C538.829 759.443 538.143 759.177 537.396 759.177C536.92 759.177 536.547 759.27 536.276 759.457C536.015 759.634 535.884 759.886 535.884 760.213C535.884 760.484 535.963 760.703 536.122 760.871C536.29 761.03 536.556 761.151 536.92 761.235L538.082 761.515C538.717 761.664 539.188 761.893 539.496 762.201C539.804 762.5 539.958 762.892 539.958 763.377C539.958 763.974 539.715 764.45 539.23 764.805C538.754 765.16 538.101 765.337 537.27 765.337ZM551.316 758.435L547.284 767.759H546.122L547.27 765.155L544.386 758.435H545.59L547.872 764.007L550.182 758.435H551.316ZM555.233 765.337C554.589 765.337 554.02 765.192 553.525 764.903C553.04 764.614 552.662 764.203 552.391 763.671C552.13 763.13 551.999 762.504 551.999 761.795C551.999 761.086 552.13 760.465 552.391 759.933C552.662 759.392 553.04 758.976 553.525 758.687C554.02 758.398 554.589 758.253 555.233 758.253C555.877 758.253 556.447 758.398 556.941 758.687C557.436 758.976 557.814 759.392 558.075 759.933C558.346 760.465 558.481 761.086 558.481 761.795C558.481 762.504 558.346 763.13 558.075 763.671C557.814 764.203 557.436 764.614 556.941 764.903C556.447 765.192 555.877 765.337 555.233 765.337ZM555.233 764.399C555.905 764.399 556.419 764.18 556.773 763.741C557.137 763.293 557.319 762.644 557.319 761.795C557.319 760.964 557.137 760.325 556.773 759.877C556.409 759.42 555.896 759.191 555.233 759.191C554.571 759.191 554.057 759.42 553.693 759.877C553.329 760.325 553.147 760.964 553.147 761.795C553.147 762.635 553.325 763.279 553.679 763.727C554.043 764.175 554.561 764.399 555.233 764.399ZM565.911 758.421V765.239H564.805V764.077C564.59 764.488 564.287 764.8 563.895 765.015C563.512 765.23 563.078 765.337 562.593 765.337C561.781 765.337 561.17 765.113 560.759 764.665C560.348 764.208 560.143 763.536 560.143 762.649V758.421H561.277V762.621C561.277 763.228 561.398 763.676 561.641 763.965C561.884 764.245 562.266 764.385 562.789 764.385C563.386 764.385 563.867 764.194 564.231 763.811C564.595 763.419 564.777 762.906 564.777 762.271V758.421H565.911ZM571.883 759.233L571.141 759.303C570.441 759.368 569.932 759.588 569.615 759.961C569.307 760.334 569.153 760.796 569.153 761.347V765.239H568.019V758.421H569.125V759.611C569.507 758.818 570.259 758.374 571.379 758.281L571.785 758.253L571.883 759.233ZM579.994 758.253C581.627 758.253 582.444 759.154 582.444 760.955V765.239H581.31V761.025C581.31 760.39 581.184 759.928 580.932 759.639C580.689 759.35 580.297 759.205 579.756 759.205C579.13 759.205 578.631 759.396 578.258 759.779C577.884 760.162 577.698 760.68 577.698 761.333V765.239H576.564V758.421H577.684V759.541C577.908 759.121 578.22 758.804 578.622 758.589C579.023 758.365 579.48 758.253 579.994 758.253ZM587.293 758.253C588.161 758.253 588.805 758.477 589.225 758.925C589.654 759.364 589.869 760.036 589.869 760.941V765.239H588.763V764.077C588.585 764.478 588.315 764.791 587.951 765.015C587.587 765.23 587.167 765.337 586.691 765.337C586.252 765.337 585.846 765.248 585.473 765.071C585.109 764.894 584.819 764.646 584.605 764.329C584.39 764.012 584.283 763.662 584.283 763.279C584.283 762.766 584.413 762.369 584.675 762.089C584.936 761.8 585.365 761.594 585.963 761.473C586.56 761.342 587.391 761.277 588.455 761.277H588.763V760.815C588.763 760.246 588.646 759.835 588.413 759.583C588.179 759.322 587.801 759.191 587.279 759.191C586.495 759.191 585.715 759.434 584.941 759.919L584.563 759.093C584.917 758.841 585.342 758.64 585.837 758.491C586.341 758.332 586.826 758.253 587.293 758.253ZM586.845 764.441C587.405 764.441 587.862 764.254 588.217 763.881C588.581 763.498 588.763 763.008 588.763 762.411V762.005H588.511C587.689 762.005 587.064 762.042 586.635 762.117C586.205 762.182 585.897 762.299 585.711 762.467C585.533 762.626 585.445 762.864 585.445 763.181C585.445 763.545 585.575 763.848 585.837 764.091C586.107 764.324 586.443 764.441 586.845 764.441ZM599.533 758.253C601.045 758.253 601.801 759.154 601.801 760.955V765.239H600.667V761.011C600.667 760.386 600.555 759.928 600.331 759.639C600.116 759.35 599.766 759.205 599.281 759.205C598.711 759.205 598.263 759.396 597.937 759.779C597.61 760.162 597.447 760.684 597.447 761.347V765.239H596.313V761.011C596.313 760.376 596.201 759.919 595.977 759.639C595.753 759.35 595.398 759.205 594.913 759.205C594.343 759.205 593.895 759.396 593.569 759.779C593.242 760.162 593.079 760.684 593.079 761.347V765.239H591.945V758.421H593.065V759.499C593.27 759.098 593.555 758.79 593.919 758.575C594.283 758.36 594.703 758.253 595.179 758.253C596.233 758.253 596.929 758.701 597.265 759.597C597.461 759.177 597.759 758.85 598.161 758.617C598.562 758.374 599.019 758.253 599.533 758.253ZM609.578 762.005H604.594C604.632 762.798 604.846 763.4 605.238 763.811C605.63 764.212 606.186 764.413 606.904 764.413C607.698 764.413 608.426 764.142 609.088 763.601L609.466 764.427C609.168 764.707 608.785 764.931 608.318 765.099C607.852 765.258 607.376 765.337 606.89 765.337C605.826 765.337 604.986 765.024 604.37 764.399C603.764 763.774 603.46 762.91 603.46 761.809C603.46 761.109 603.596 760.493 603.866 759.961C604.137 759.42 604.515 759 605 758.701C605.495 758.402 606.055 758.253 606.68 758.253C607.586 758.253 608.295 758.552 608.808 759.149C609.322 759.737 609.578 760.549 609.578 761.585V762.005ZM606.694 759.135C606.097 759.135 605.616 759.322 605.252 759.695C604.898 760.068 604.688 760.596 604.622 761.277H608.584C608.566 760.586 608.393 760.059 608.066 759.695C607.74 759.322 607.282 759.135 606.694 759.135ZM612.509 758.421V759.863H611.081V758.421H612.509ZM612.509 763.811V765.239H611.081V763.811H612.509Z" fill="white"/>
<path d="M499.976 736.074V745.239H499.157L493.632 737.868V745.239H492.631V736.074H493.45L498.975 743.445V736.074H499.976ZM504.659 738.752C505.465 738.752 506.063 738.96 506.453 739.376C506.852 739.783 507.051 740.407 507.051 741.248V745.239H506.024V744.16C505.86 744.533 505.608 744.823 505.27 745.031C504.932 745.23 504.542 745.33 504.1 745.33C503.693 745.33 503.316 745.248 502.969 745.083C502.631 744.918 502.363 744.689 502.163 744.394C501.964 744.099 501.864 743.774 501.864 743.419C501.864 742.942 501.986 742.574 502.228 742.314C502.471 742.045 502.87 741.855 503.424 741.742C503.979 741.621 504.75 741.56 505.738 741.56H506.024V741.131C506.024 740.602 505.916 740.221 505.699 739.987C505.483 739.744 505.132 739.623 504.646 739.623C503.918 739.623 503.195 739.848 502.475 740.299L502.124 739.532C502.454 739.298 502.848 739.112 503.307 738.973C503.775 738.826 504.226 738.752 504.659 738.752ZM504.243 744.498C504.763 744.498 505.188 744.325 505.517 743.978C505.855 743.623 506.024 743.168 506.024 742.613V742.236H505.79C505.028 742.236 504.447 742.271 504.048 742.34C503.65 742.401 503.364 742.509 503.19 742.665C503.026 742.812 502.943 743.033 502.943 743.328C502.943 743.666 503.065 743.948 503.307 744.173C503.559 744.39 503.871 744.498 504.243 744.498ZM516.025 738.752C517.429 738.752 518.131 739.588 518.131 741.261V745.239H517.078V741.313C517.078 740.732 516.974 740.308 516.766 740.039C516.567 739.77 516.242 739.636 515.791 739.636C515.262 739.636 514.846 739.814 514.543 740.169C514.24 740.524 514.088 741.01 514.088 741.625V745.239H513.035V741.313C513.035 740.724 512.931 740.299 512.723 740.039C512.515 739.77 512.186 739.636 511.735 739.636C511.206 739.636 510.79 739.814 510.487 740.169C510.184 740.524 510.032 741.01 510.032 741.625V745.239H508.979V738.908H510.019V739.909C510.21 739.536 510.474 739.25 510.812 739.051C511.15 738.852 511.54 738.752 511.982 738.752C512.961 738.752 513.607 739.168 513.919 740C514.101 739.61 514.378 739.307 514.751 739.09C515.124 738.865 515.548 738.752 516.025 738.752ZM525.353 742.236H520.725C520.76 742.973 520.959 743.532 521.323 743.913C521.687 744.286 522.203 744.472 522.87 744.472C523.607 744.472 524.283 744.221 524.898 743.718L525.249 744.485C524.972 744.745 524.617 744.953 524.183 745.109C523.75 745.256 523.308 745.33 522.857 745.33C521.869 745.33 521.089 745.04 520.517 744.459C519.954 743.878 519.672 743.077 519.672 742.054C519.672 741.404 519.798 740.832 520.049 740.338C520.301 739.835 520.652 739.445 521.102 739.168C521.562 738.891 522.082 738.752 522.662 738.752C523.503 738.752 524.162 739.029 524.638 739.584C525.115 740.13 525.353 740.884 525.353 741.846V742.236ZM522.675 739.571C522.121 739.571 521.674 739.744 521.336 740.091C521.007 740.438 520.812 740.927 520.751 741.56H524.43C524.413 740.919 524.253 740.429 523.949 740.091C523.646 739.744 523.221 739.571 522.675 739.571Z" fill="white" fill-opacity="0.5"/>
<path d="M636.025 678.401V678.101L637.225 677.801V665.001L636.025 664.701V664.401H641.725V664.701L640.525 665.001V671.201H644.825V665.001L643.625 664.701V664.401H649.325V664.701L648.125 665.001V677.801L649.325 678.101V678.401H643.625V678.101L644.825 677.801V671.701H640.525V677.801L641.725 678.101V678.401H636.025ZM649.313 678.101L650.913 677.501L656.413 664.201H657.013L662.713 677.801L663.713 678.101V678.401H661.313C660.62 678.401 660.053 678.248 659.613 677.941C659.173 677.621 658.846 677.208 658.633 676.701L657.613 674.301H652.833L651.513 677.501L653.013 678.101V678.401H649.313V678.101ZM653.033 673.801H657.413L655.213 668.541L653.033 673.801ZM662.598 665.001L661.598 664.701V664.401H663.998C664.691 664.401 665.258 664.561 665.698 664.881C666.138 665.188 666.471 665.595 666.698 666.101L670.238 674.161L673.498 665.301L671.998 664.701V664.401H675.698V664.701L674.098 665.301L669.198 678.601H668.598L662.598 665.001ZM676.299 678.101L677.499 677.801V665.001L676.299 664.701V664.401H686.999V668.001H686.399C686.145 667.801 685.925 667.548 685.739 667.241C685.312 666.521 685.099 665.741 685.099 664.901H680.799V671.201H683.099C683.192 670.695 683.365 670.221 683.619 669.781C683.725 669.581 683.852 669.388 683.999 669.201H684.599V673.701H683.999C683.852 673.515 683.725 673.321 683.619 673.121C683.365 672.681 683.192 672.208 683.099 671.701H680.799V677.901H685.499C685.499 677.061 685.712 676.281 686.139 675.561C686.325 675.255 686.545 675.001 686.799 674.801H687.399V678.401H676.299V678.101ZM693.395 678.101L694.995 677.501L700.495 664.201H701.095L706.795 677.801L707.795 678.101V678.401H705.395C704.702 678.401 704.135 678.248 703.695 677.941C703.255 677.621 702.928 677.208 702.715 676.701L701.695 674.301H696.915L695.595 677.501L697.095 678.101V678.401H693.395V678.101ZM697.115 673.801H701.495L699.295 668.541L697.115 673.801ZM710.189 667.801V677.501L711.789 678.101V678.401H707.989V678.101L709.589 677.501V665.101L708.189 664.701V664.401H710.289C710.995 664.401 711.549 664.528 711.949 664.781C712.349 665.035 712.729 665.375 713.089 665.801L719.489 673.301V665.301L717.889 664.701V664.401H721.689V664.701L720.089 665.301V678.701H719.489L710.189 667.801ZM726.093 678.101L727.293 677.801V673.201L723.193 665.001L722.193 664.701V664.401H724.693C725.387 664.401 725.94 664.548 726.353 664.841C726.78 665.135 727.127 665.555 727.393 666.101L730.353 672.001L733.393 665.301L731.893 664.701V664.401H735.693V664.701L734.093 665.301L730.593 673.001V677.801L731.793 678.101V678.401H726.093V678.101ZM750.5 681.801C749.78 681.801 749.146 681.655 748.6 681.361C748.053 681.081 747.633 680.688 747.34 680.181C747.046 679.688 746.9 679.128 746.9 678.501C745.366 678.181 744.166 677.415 743.3 676.201C742.433 674.975 742 673.375 742 671.401C742 669.855 742.266 668.535 742.8 667.441C743.333 666.348 744.086 665.521 745.06 664.961C746.046 664.388 747.193 664.101 748.5 664.101C749.806 664.101 750.946 664.388 751.92 664.961C752.906 665.521 753.666 666.348 754.2 667.441C754.733 668.535 755 669.855 755 671.401C755 673.375 754.566 674.975 753.7 676.201C752.833 677.415 751.633 678.181 750.1 678.501C750.1 680.301 750.433 681.201 751.1 681.201C751.286 681.201 751.433 681.168 751.54 681.101C751.553 681.101 751.606 681.068 751.7 681.001L751.9 681.501C751.846 681.541 751.74 681.595 751.58 681.661C751.34 681.755 750.98 681.801 750.5 681.801ZM748.5 678.301C749.02 678.301 749.5 678.081 749.94 677.641C750.393 677.201 750.766 676.468 751.06 675.441C751.353 674.415 751.5 673.068 751.5 671.401C751.5 669.735 751.353 668.388 751.06 667.361C750.766 666.335 750.393 665.601 749.94 665.161C749.5 664.721 749.02 664.501 748.5 664.501C747.98 664.501 747.493 664.721 747.04 665.161C746.6 665.601 746.233 666.335 745.94 667.361C745.646 668.388 745.5 669.735 745.5 671.401C745.5 673.068 745.646 674.415 745.94 675.441C746.233 676.468 746.6 677.201 747.04 677.641C747.493 678.081 747.98 678.301 748.5 678.301ZM763.804 678.701C761.831 678.701 760.338 678.241 759.324 677.321C758.311 676.388 757.804 675.081 757.804 673.401V665.001L756.604 664.701V664.401H762.304V664.701L761.104 665.001V673.401C761.104 675.121 761.371 676.355 761.904 677.101C762.438 677.835 763.204 678.201 764.204 678.201C764.818 678.201 765.398 678.008 765.944 677.621C766.504 677.221 766.951 676.661 767.284 675.941C767.631 675.208 767.804 674.361 767.804 673.401V665.301L766.204 664.701V664.401H770.004V664.701L768.404 665.301V673.401C768.404 674.481 768.204 675.421 767.804 676.221C767.404 677.021 766.858 677.635 766.164 678.061C765.471 678.488 764.684 678.701 763.804 678.701ZM771.104 678.101L772.304 677.801V665.001L771.104 664.701V664.401H781.804V668.001H781.204C780.95 667.801 780.73 667.548 780.544 667.241C780.117 666.521 779.904 665.741 779.904 664.901H775.604V671.201H777.904C777.997 670.695 778.17 670.221 778.424 669.781C778.53 669.581 778.657 669.388 778.804 669.201H779.404V673.701H778.804C778.657 673.515 778.53 673.321 778.424 673.121C778.17 672.681 777.997 672.208 777.904 671.701H775.604V677.901H780.304C780.304 677.061 780.517 676.281 780.944 675.561C781.13 675.255 781.35 675.001 781.604 674.801H782.204V678.401H771.104V678.101ZM788.894 678.701C787.947 678.701 787.061 678.488 786.234 678.061C785.861 677.875 785.547 677.655 785.294 677.401C785.107 677.708 784.874 677.981 784.594 678.221C784.354 678.395 784.221 678.488 784.194 678.501H783.694V674.701H784.494C784.694 675.355 784.974 675.941 785.334 676.461C786.147 677.621 787.201 678.201 788.494 678.201C789.254 678.201 789.861 677.975 790.314 677.521C790.767 677.068 790.994 676.461 790.994 675.701C790.994 675.261 790.861 674.868 790.594 674.521C790.341 674.175 790.021 673.868 789.634 673.601C789.247 673.335 788.707 673.001 788.014 672.601C787.134 672.108 786.421 671.661 785.874 671.261C785.327 670.861 784.861 670.361 784.474 669.761C784.087 669.148 783.894 668.428 783.894 667.601C783.894 666.948 784.074 666.361 784.434 665.841C784.807 665.308 785.361 664.888 786.094 664.581C786.827 664.261 787.727 664.101 788.794 664.101C789.567 664.101 790.341 664.321 791.114 664.761C791.407 664.921 791.701 665.135 791.994 665.401C792.221 665.055 792.454 664.781 792.694 664.581C792.934 664.408 793.067 664.315 793.094 664.301H793.594V668.101H792.794C792.621 667.461 792.361 666.881 792.014 666.361C791.694 665.855 791.294 665.435 790.814 665.101C790.347 664.768 789.807 664.601 789.194 664.601C788.674 664.601 788.227 664.808 787.854 665.221C787.481 665.635 787.294 666.161 787.294 666.801C787.294 667.295 787.434 667.741 787.714 668.141C788.007 668.528 788.361 668.868 788.774 669.161C789.201 669.455 789.774 669.808 790.494 670.221C791.334 670.701 792.014 671.128 792.534 671.501C793.054 671.875 793.494 672.341 793.854 672.901C794.214 673.448 794.394 674.081 794.394 674.801C794.394 675.521 794.187 676.181 793.774 676.781C793.361 677.368 792.741 677.835 791.914 678.181C791.087 678.528 790.081 678.701 788.894 678.701ZM798.389 678.101L799.589 677.801V664.901H797.289C797.289 665.715 797.069 666.495 796.629 667.241C796.442 667.548 796.229 667.801 795.989 668.001H795.389V664.401H807.089V668.001H806.489C806.235 667.801 806.015 667.548 805.829 667.241C805.402 666.521 805.189 665.741 805.189 664.901H802.889V677.801L804.089 678.101V678.401H798.389V678.101ZM808.584 678.401V678.101L809.784 677.801V665.001L808.584 664.701V664.401H814.284V664.701L813.084 665.001V677.801L814.284 678.101V678.401H808.584ZM822.679 678.701C821.373 678.701 820.226 678.421 819.239 677.861C818.266 677.288 817.513 676.455 816.979 675.361C816.446 674.268 816.179 672.948 816.179 671.401C816.179 669.855 816.446 668.535 816.979 667.441C817.513 666.348 818.266 665.521 819.239 664.961C820.226 664.388 821.373 664.101 822.679 664.101C823.986 664.101 825.126 664.388 826.099 664.961C827.086 665.521 827.846 666.348 828.379 667.441C828.913 668.535 829.179 669.855 829.179 671.401C829.179 672.948 828.913 674.268 828.379 675.361C827.846 676.455 827.086 677.288 826.099 677.861C825.126 678.421 823.986 678.701 822.679 678.701ZM822.679 678.301C823.199 678.301 823.679 678.081 824.119 677.641C824.573 677.201 824.946 676.468 825.239 675.441C825.533 674.415 825.679 673.068 825.679 671.401C825.679 669.735 825.533 668.388 825.239 667.361C824.946 666.335 824.573 665.601 824.119 665.161C823.679 664.721 823.199 664.501 822.679 664.501C822.159 664.501 821.673 664.721 821.219 665.161C820.779 665.601 820.413 666.335 820.119 667.361C819.826 668.388 819.679 669.735 819.679 671.401C819.679 673.068 819.826 674.415 820.119 675.441C820.413 676.468 820.779 677.201 821.219 677.641C821.673 678.081 822.159 678.301 822.679 678.301ZM832.884 667.801V677.501L834.484 678.101V678.401H830.684V678.101L832.284 677.501V665.101L830.884 664.701V664.401H832.984C833.691 664.401 834.244 664.528 834.644 664.781C835.044 665.035 835.424 665.375 835.784 665.801L842.184 673.301V665.301L840.584 664.701V664.401H844.384V664.701L842.784 665.301V678.701H842.184L832.884 667.801ZM850.789 678.701C849.842 678.701 848.955 678.488 848.129 678.061C847.755 677.875 847.442 677.655 847.189 677.401C847.002 677.708 846.769 677.981 846.489 678.221C846.249 678.395 846.115 678.488 846.089 678.501H845.589V674.701H846.389C846.589 675.355 846.869 675.941 847.229 676.461C848.042 677.621 849.095 678.201 850.389 678.201C851.149 678.201 851.755 677.975 852.209 677.521C852.662 677.068 852.889 676.461 852.889 675.701C852.889 675.261 852.755 674.868 852.489 674.521C852.235 674.175 851.915 673.868 851.529 673.601C851.142 673.335 850.602 673.001 849.909 672.601C849.029 672.108 848.315 671.661 847.769 671.261C847.222 670.861 846.755 670.361 846.369 669.761C845.982 669.148 845.789 668.428 845.789 667.601C845.789 666.948 845.969 666.361 846.329 665.841C846.702 665.308 847.255 664.888 847.989 664.581C848.722 664.261 849.622 664.101 850.689 664.101C851.462 664.101 852.235 664.321 853.009 664.761C853.302 664.921 853.595 665.135 853.889 665.401C854.115 665.055 854.349 664.781 854.589 664.581C854.829 664.408 854.962 664.315 854.989 664.301H855.489V668.101H854.689C854.515 667.461 854.255 666.881 853.909 666.361C853.589 665.855 853.189 665.435 852.709 665.101C852.242 664.768 851.702 664.601 851.089 664.601C850.569 664.601 850.122 664.808 849.749 665.221C849.375 665.635 849.189 666.161 849.189 666.801C849.189 667.295 849.329 667.741 849.609 668.141C849.902 668.528 850.255 668.868 850.669 669.161C851.095 669.455 851.669 669.808 852.389 670.221C853.229 670.701 853.909 671.128 854.429 671.501C854.949 671.875 855.389 672.341 855.749 672.901C856.109 673.448 856.289 674.081 856.289 674.801C856.289 675.521 856.082 676.181 855.669 676.781C855.255 677.368 854.635 677.835 853.809 678.181C852.982 678.528 851.975 678.701 850.789 678.701ZM861.283 672.201C862.097 671.881 862.717 671.415 863.143 670.801C863.57 670.188 863.783 669.321 863.783 668.201C863.783 666.921 863.55 666.001 863.083 665.441C862.63 664.881 861.93 664.601 860.983 664.601C860.597 664.601 860.203 664.655 859.803 664.761L859.383 664.901V668.101L859.123 668.161C858.91 668.188 858.73 668.201 858.583 668.201C858.13 668.201 857.763 668.068 857.483 667.801C857.217 667.521 857.083 667.155 857.083 666.701C857.083 666.275 857.243 665.861 857.563 665.461C857.897 665.061 858.383 664.735 859.023 664.481C859.677 664.228 860.463 664.101 861.383 664.101C863.33 664.101 864.797 664.481 865.783 665.241C866.783 666.001 867.283 666.988 867.283 668.201C867.283 669.335 866.863 670.275 866.023 671.021C865.197 671.768 863.95 672.261 862.283 672.501L862.183 674.101H861.383L861.283 672.201ZM861.683 678.601C861.283 678.601 860.93 678.448 860.623 678.141C860.33 677.821 860.183 677.441 860.183 677.001C860.183 676.561 860.33 676.188 860.623 675.881C860.93 675.561 861.283 675.401 861.683 675.401C862.083 675.401 862.43 675.561 862.723 675.881C863.03 676.188 863.183 676.561 863.183 677.001C863.183 677.441 863.03 677.821 862.723 678.141C862.43 678.448 862.083 678.601 861.683 678.601Z" fill="white"/>
</g>
<rect x="633" y="95" width="97" height="4" fill="#D9D9D9"/>
</g>
<defs>
<clipPath id="clip0_1_11586">
<rect width="1127" height="776" fill="white" transform="matrix(-1 0 0 1 1127 0.321777)"/>
</clipPath>
</defs>
</svg>
