<svg width="257" height="68" viewBox="0 0 257 68" fill="none" xmlns="http://www.w3.org/2000/svg">
<path d="M69.0934 18.3C67.7867 18.3 66.64 18.02 65.6534 17.46C64.68 16.8867 63.9267 16.0533 63.3934 14.96C62.86 13.8667 62.5934 12.5467 62.5934 11C62.5934 9.45333 62.86 8.13333 63.3934 7.04C63.9267 5.94667 64.68 5.12 65.6534 4.56C66.64 3.98667 67.7867 3.7 69.0934 3.7C70.4 3.7 71.54 3.98667 72.5134 4.56C73.5 5.12 74.26 5.94667 74.7934 7.04C75.3267 8.13333 75.5934 9.45333 75.5934 11C75.5934 12.5467 75.3267 13.8667 74.7934 14.96C74.26 16.0533 73.5 16.8867 72.5134 17.46C71.54 18.02 70.4 18.3 69.0934 18.3ZM69.0934 17.9C69.6134 17.9 70.0934 17.68 70.5334 17.24C70.9867 16.8 71.36 16.0667 71.6534 15.04C71.9467 14.0133 72.0934 12.6667 72.0934 11C72.0934 9.33333 71.9467 7.98667 71.6534 6.96C71.36 5.93333 70.9867 5.2 70.5334 4.76C70.0934 4.32 69.6134 4.1 69.0934 4.1C68.5734 4.1 68.0867 4.32 67.6334 4.76C67.1934 5.2 66.8267 5.93333 66.5334 6.96C66.24 7.98667 66.0934 9.33333 66.0934 11C66.0934 12.6667 66.24 14.0133 66.5334 15.04C66.8267 16.0667 67.1934 16.8 67.6334 17.24C68.0867 17.68 68.5734 17.9 69.0934 17.9ZM84.398 18.3C82.4247 18.3 80.9314 17.84 79.918 16.92C78.9047 15.9867 78.398 14.68 78.398 13V4.6L77.198 4.3V4H82.898V4.3L81.698 4.6V13C81.698 14.72 81.9647 15.9533 82.498 16.7C83.0314 17.4333 83.798 17.8 84.798 17.8C85.4114 17.8 85.9914 17.6067 86.538 17.22C87.098 16.82 87.5447 16.26 87.878 15.54C88.2247 14.8067 88.398 13.96 88.398 13V4.9L86.798 4.3V4H90.598V4.3L88.998 4.9V13C88.998 14.08 88.798 15.02 88.398 15.82C87.998 16.62 87.4514 17.2333 86.758 17.66C86.0647 18.0867 85.278 18.3 84.398 18.3ZM91.6973 17.7L92.8973 17.4V4.6L91.6973 4.3V4H96.9973C99.2639 4 100.897 4.34667 101.897 5.04C102.897 5.72 103.397 6.67333 103.397 7.9C103.397 8.72667 103.177 9.4 102.737 9.92C102.297 10.4267 101.731 10.8067 101.037 11.06C100.304 11.34 99.5239 11.4867 98.6973 11.5V11.6C99.1906 11.6267 99.6239 11.7 99.9973 11.82C100.931 12.1133 101.564 12.64 101.897 13.4L103.697 17.4L104.697 17.7V18H101.897C100.804 18 100.004 17.4333 99.4973 16.3L97.4973 11.8H96.1973V17.4L97.5973 17.7V18H91.6973V17.7ZM96.9973 11.3C97.9306 11.3 98.6639 11.0067 99.1973 10.42C99.7306 9.83333 99.9973 8.99333 99.9973 7.9C99.9973 6.80667 99.7306 5.96667 99.1973 5.38C98.6639 4.79333 97.9306 4.5 96.9973 4.5H96.1973V11.3H96.9973ZM118.007 18.3C115.873 18.3 114.207 17.6667 113.007 16.4C111.807 15.1333 111.207 13.3333 111.207 11C111.207 9.46667 111.467 8.15333 111.987 7.06C112.52 5.95333 113.26 5.12 114.207 4.56C115.167 3.98667 116.273 3.7 117.527 3.7C118.287 3.7 119.053 3.92 119.827 4.36C120.12 4.52 120.413 4.73333 120.707 5C120.933 4.65333 121.167 4.38 121.407 4.18C121.647 4.00667 121.78 3.91333 121.807 3.9H122.307V7.7H121.507C121.333 7.06 121.073 6.48 120.727 5.96C120.407 5.45333 120.007 5.03333 119.527 4.7C119.06 4.36667 118.52 4.2 117.907 4.2C116.987 4.2 116.22 4.73333 115.607 5.8C115.007 6.86667 114.707 8.6 114.707 11C114.707 13.44 115.033 15.1867 115.687 16.24C116.353 17.28 117.26 17.8 118.407 17.8C119.033 17.8 119.627 17.6267 120.187 17.28C120.76 16.92 121.22 16.4467 121.567 15.86C121.927 15.2733 122.107 14.6533 122.107 14H122.607C122.607 14.76 122.4 15.4733 121.987 16.14C121.587 16.7933 121.033 17.32 120.327 17.72C119.633 18.1067 118.86 18.3 118.007 18.3ZM124.314 17.7L125.514 17.4V4.6L124.314 4.3V4H130.014V4.3L128.814 4.6V17.5H133.114C133.114 16.66 133.328 15.88 133.754 15.16C133.941 14.8533 134.161 14.6 134.414 14.4H135.014V18H124.314V17.7ZM136.521 18V17.7L137.721 17.4V4.6L136.521 4.3V4H142.221V4.3L141.021 4.6V17.4L142.221 17.7V18H136.521ZM144.021 17.7L145.221 17.4V4.6L144.021 4.3V4H154.721V7.6H154.121C153.868 7.4 153.648 7.14667 153.461 6.84C153.035 6.12 152.821 5.34 152.821 4.5H148.521V10.8H150.821C150.915 10.2933 151.088 9.82 151.341 9.38C151.448 9.18 151.575 8.98667 151.721 8.8H152.321V13.3H151.721C151.575 13.1133 151.448 12.92 151.341 12.72C151.088 12.28 150.915 11.8067 150.821 11.3H148.521V17.5H153.221C153.221 16.66 153.435 15.88 153.861 15.16C154.048 14.8533 154.268 14.6 154.521 14.4H155.121V18H144.021V17.7ZM158.712 7.4V17.1L160.312 17.7V18H156.512V17.7L158.112 17.1V4.7L156.712 4.3V4H158.812C159.519 4 160.072 4.12667 160.472 4.38C160.872 4.63333 161.252 4.97333 161.612 5.4L168.012 12.9V4.9L166.412 4.3V4H170.212V4.3L168.612 4.9V18.3H168.012L158.712 7.4ZM174.217 17.7L175.417 17.4V4.5H173.117C173.117 5.31333 172.897 6.09333 172.457 6.84C172.27 7.14667 172.057 7.4 171.817 7.6H171.217V4H182.917V7.6H182.317C182.063 7.4 181.843 7.14667 181.657 6.84C181.23 6.12 181.017 5.34 181.017 4.5H178.717V17.4L179.917 17.7V18H174.217V17.7ZM189.312 18.3C188.365 18.3 187.479 18.0867 186.652 17.66C186.279 17.4733 185.965 17.2533 185.712 17C185.525 17.3067 185.292 17.58 185.012 17.82C184.772 17.9933 184.639 18.0867 184.612 18.1H184.112V14.3H184.912C185.112 14.9533 185.392 15.54 185.752 16.06C186.565 17.22 187.619 17.8 188.912 17.8C189.672 17.8 190.279 17.5733 190.732 17.12C191.185 16.6667 191.412 16.06 191.412 15.3C191.412 14.86 191.279 14.4667 191.012 14.12C190.759 13.7733 190.439 13.4667 190.052 13.2C189.665 12.9333 189.125 12.6 188.432 12.2C187.552 11.7067 186.839 11.26 186.292 10.86C185.745 10.46 185.279 9.96 184.892 9.36C184.505 8.74667 184.312 8.02667 184.312 7.2C184.312 6.54667 184.492 5.96 184.852 5.44C185.225 4.90667 185.779 4.48667 186.512 4.18C187.245 3.86 188.145 3.7 189.212 3.7C189.985 3.7 190.759 3.92 191.532 4.36C191.825 4.52 192.119 4.73333 192.412 5C192.639 4.65333 192.872 4.38 193.112 4.18C193.352 4.00667 193.485 3.91333 193.512 3.9H194.012V7.7H193.212C193.039 7.06 192.779 6.48 192.432 5.96C192.112 5.45333 191.712 5.03333 191.232 4.7C190.765 4.36667 190.225 4.2 189.612 4.2C189.092 4.2 188.645 4.40667 188.272 4.82C187.899 5.23333 187.712 5.76 187.712 6.4C187.712 6.89333 187.852 7.34 188.132 7.74C188.425 8.12667 188.779 8.46667 189.192 8.76C189.619 9.05333 190.192 9.40667 190.912 9.82C191.752 10.3 192.432 10.7267 192.952 11.1C193.472 11.4733 193.912 11.94 194.272 12.5C194.632 13.0467 194.812 13.68 194.812 14.4C194.812 15.12 194.605 15.78 194.192 16.38C193.779 16.9667 193.159 17.4333 192.332 17.78C191.505 18.1267 190.499 18.3 189.312 18.3Z" fill="#181818"/>
<rect x="73.0006" y="52" width="32" height="1.54334" rx="0.771672" fill="#E3B873"/>
<rect x="155.001" y="52" width="32" height="1.54334" rx="0.771672" fill="#E3B873"/>
<path d="M135.426 47.5602L130.581 46.1064C130.217 45.9979 129.843 45.9597 129.473 45.9732V45.9608H123.583L113.14 42.4902L113.171 57.1652L116.169 58.6637L117.944 54.3243L120.537 55.3617L121.21 53.6814L122.183 54.6551L121.275 55.5639C120.959 55.8796 120.778 56.3164 120.778 56.7632C120.778 57.6775 121.507 58.421 122.414 58.4531C122.446 59.3393 123.158 60.0517 124.044 60.0833C124.076 60.9695 124.788 61.6819 125.675 61.7135C125.707 62.6204 126.45 63.3495 127.365 63.3495C127.811 63.3495 128.248 63.1685 128.564 62.8528L129.473 61.9443L129.838 62.3094C130.153 62.6251 130.59 62.8061 131.037 62.8061C131.952 62.8061 132.695 62.077 132.727 61.1701C133.613 61.1385 134.326 60.4261 134.357 59.5399C135.243 59.5083 135.956 58.7959 135.987 57.9097C136.894 57.877 137.624 57.1341 137.624 56.2198C137.624 56.1426 137.611 56.0664 137.601 55.9897L138.381 55.2099L139.011 56.4708L142.424 54.7639L144.487 58.702L146.861 57.1195V43.0748L135.426 47.5602ZM115.606 57.1673L114.257 56.4925L114.23 43.9976L120.184 45.9767L115.606 57.1673ZM119.932 53.9488L118.355 53.3184L121.218 46.32L122.776 46.8379L119.932 53.9488ZM121.865 56.7632C121.865 56.6027 121.93 56.4458 122.043 56.332L122.999 55.3768C123.112 55.2633 123.269 55.1985 123.429 55.1985C123.765 55.1985 124.039 55.4721 124.039 55.8077C124.039 55.968 123.974 56.1251 123.86 56.2386L122.905 57.1941C122.792 57.3076 122.635 57.3721 122.474 57.3721C122.138 57.3721 121.865 57.0988 121.865 56.7632ZM123.495 58.3934C123.495 58.2328 123.56 58.076 123.673 57.9622L124.629 57.007C124.742 56.8935 124.899 56.8287 125.06 56.8287C125.396 56.8287 125.669 57.1023 125.669 57.4379C125.669 57.5982 125.604 57.7553 125.491 57.8688L124.535 58.8243C124.422 58.9378 124.265 59.0023 124.104 59.0023C123.769 59.0023 123.495 58.729 123.495 58.3934ZM125.125 60.0236C125.125 59.863 125.19 59.7062 125.303 59.5924L126.259 58.6372C126.372 58.5237 126.53 58.4589 126.69 58.4589C127.026 58.4589 127.299 58.7325 127.299 59.0681C127.299 59.2284 127.234 59.3854 127.121 59.499L126.166 60.4545C126.052 60.568 125.895 60.6325 125.735 60.6325C125.399 60.6325 125.125 60.3592 125.125 60.0236ZM128.751 61.1292L127.796 62.0847C127.682 62.1982 127.525 62.2627 127.365 62.2627C127.029 62.2627 126.756 61.9894 126.756 61.6538C126.756 61.4932 126.82 61.3364 126.934 61.2226L127.889 60.2674C128.003 60.1538 128.16 60.0891 128.32 60.0891C128.656 60.0891 128.929 60.3627 128.929 60.6983C128.929 60.8586 128.864 61.0156 128.751 61.1292ZM135.928 56.8287C135.767 56.8287 135.61 56.7642 135.497 56.6507L130.944 52.0973L130.175 52.8657L134.728 57.4188C134.842 57.5326 134.907 57.6895 134.907 57.85C134.907 58.1856 134.633 58.4589 134.297 58.4589C134.137 58.4589 133.98 58.3944 133.867 58.2809L129.313 53.7275L128.545 54.4959L133.098 59.049C133.212 59.1628 133.276 59.3196 133.276 59.4802C133.276 59.8158 133.003 60.0891 132.667 60.0891C132.507 60.0891 132.35 60.0246 132.236 59.9111L127.683 55.3577L126.915 56.1261L131.468 60.6792C131.581 60.793 131.646 60.9498 131.646 61.1104C131.646 61.446 131.373 61.7193 131.037 61.7193C130.877 61.7193 130.72 61.6548 130.606 61.5413L129.993 60.9281C130.004 60.8522 130.016 60.776 130.016 60.6983C130.016 59.7837 129.287 59.0405 128.38 59.0084C128.348 58.1222 127.636 57.4098 126.75 57.3782C126.718 56.492 126.006 55.7796 125.119 55.748C125.087 54.8411 124.344 54.1117 123.429 54.1117C123.352 54.1117 123.276 54.1242 123.2 54.1345L121.648 52.5832L123.863 47.0476H127.074L125.079 49.0431C124.758 49.3631 124.582 49.7892 124.582 50.2424C124.582 51.1774 125.343 51.9381 126.278 51.9381C126.725 51.9381 127.162 51.7572 127.477 51.4414L128.917 50.0015C129.211 49.708 129.73 49.6966 130.037 49.9776L131.307 51.1421C131.729 51.529 132.198 51.8508 132.7 52.1029L136.358 55.7886C136.472 55.9024 136.537 56.0593 136.537 56.2198C136.537 56.5554 136.264 56.8287 135.928 56.8287ZM137.08 54.9735L134.847 52.723C135.046 52.7418 135.247 52.7532 135.45 52.7532V51.6664C134.185 51.6664 132.974 51.1955 132.042 50.3406L130.771 49.1766C130.054 48.518 128.837 48.5443 128.149 49.2336L126.709 50.6733C126.595 50.7863 126.438 50.8513 126.278 50.8513C125.942 50.8513 125.669 50.5781 125.669 50.2424C125.669 50.0792 125.732 49.9267 125.847 49.8112L127.918 47.7401C128.527 47.1314 129.441 46.8998 130.268 47.1476L135.068 48.5875L137.867 54.1863L137.08 54.9735ZM139.497 55.0128L136.202 48.423L138.608 47.479L141.92 53.801L139.497 55.0128ZM145.775 56.5382L144.889 57.1288L139.626 47.0802L145.775 44.6686V56.5382Z" fill="#E3B873"/>
<circle cx="132.667" cy="39.7014" r="0.485591" fill="#E3B873"/>
<circle cx="120.41" cy="62.6306" r="0.485591" fill="#E3B873"/>
<circle cx="122.468" cy="64.3191" r="0.485591" fill="#E3B873"/>
<circle cx="124.817" cy="65.5579" r="0.485591" fill="#E3B873"/>
<circle cx="127.365" cy="66.3503" r="0.485591" fill="#E3B873"/>
<circle cx="135.214" cy="40.4744" r="0.485591" fill="#E3B873"/>
<circle cx="137.563" cy="41.7288" r="0.485591" fill="#E3B873"/>
<path d="M139.83 41.0269V43.8286H136.997" stroke="#E3B873" stroke-linecap="round" stroke-linejoin="round"/>
<path d="M118.01 62.314L118.01 60.0471L120.274 60.0471" stroke="#E3B873" stroke-linecap="round" stroke-linejoin="round"/>
<path d="M120.801 43.0099C122.336 41.6741 123.312 41.0595 125.152 40.3412C127.103 39.5793 128.424 39.4004 130.544 39.4004" stroke="#E3B873" stroke-linecap="round"/>
<path d="M141.405 60.4984C140.263 62.2786 138.138 64.0167 136.409 64.9712C134.575 65.9837 132.61 66.5543 129.993 66.6906" stroke="#E3B873" stroke-linecap="round"/>
</svg>
